<?xml version="1.0" encoding="utf-8"?>
<!-- Generator: Adobe Illustrator 22.1.0, SVG Export Plug-In . SVG Version: 6.00 Build 0)  -->
<svg version="1.1" xmlns="http://www.w3.org/2000/svg" xmlns:xlink="http://www.w3.org/1999/xlink" x="0px" y="0px"
	 viewBox="0 0 60 60" style="enable-background:new 0 0 60 60;" xml:space="preserve">
<style type="text/css">
	.st0{fill:url(#SVGID_1_);}
	.st1{fill:#FFFFFF;}
	.st2{fill:#1D1D1B;}
</style>
<g id="Sfondo">
	<g>
		
			<linearGradient id="SVGID_1_" gradientUnits="userSpaceOnUse" x1="30" y1="0.5" x2="30" y2="59.5" gradientTransform="matrix(1 0 0 -1 0 60)">
			<stop  offset="0" style="stop-color:#E6E6EB"/>
			<stop  offset="0.1738" style="stop-color:#E2E2E6"/>
			<stop  offset="0.352" style="stop-color:#D5D4D8"/>
			<stop  offset="0.5323" style="stop-color:#C0BFC2"/>
			<stop  offset="0.7139" style="stop-color:#A4A2A4"/>
			<stop  offset="0.8949" style="stop-color:#828282"/>
			<stop  offset="1" style="stop-color:#6B6E6E"/>
		</linearGradient>
		<path class="st0" d="M10,59.5c-5.2,0-9.5-4.3-9.5-9.5V10c0-5.2,4.3-9.5,9.5-9.5h40c5.2,0,9.5,4.3,9.5,9.5v40
			c0,5.2-4.3,9.5-9.5,9.5H10z"/>
		<path class="st1" d="M50,1c5,0,9,4,9,9v40c0,5-4,9-9,9H10c-5,0-9-4-9-9V10c0-5,4-9,9-9H50 M50,0H10C4.5,0,0,4.5,0,10v40
			c0,5.5,4.5,10,10,10h40c5.5,0,10-4.5,10-10V10C60,4.5,55.5,0,50,0L50,0z"/>
	</g>
</g>
<g id="Livello_1">
	<g>
		<path class="st2" d="M51.2,9.1C48.6,6.5,45,5,41.2,5c-3.8,0-7.3,1.5-10,4.1c-3.3,3.3-4.7,7.8-3.9,12.4l-2.8,2.8l2,2L4.6,48.2
			L6,54.1l5.5,0.9l2.9-2.9l3.1-0.6l1.1-4.8l4.5-1l1.7-1.7l0.2-2.8l3.6-1l5.9-5.9l1.5,1.5l2.7-2.7c0.9,0.2,1.8,0.3,2.7,0.3
			c0,0,0,0,0,0c3.8,0,7.3-1.5,10-4.1C56.8,23.6,56.8,14.7,51.2,9.1z M49.9,27.8c-2.3,2.3-5.4,3.6-8.7,3.6c-0.9,0-1.9-0.1-2.8-0.3
			L38,31l-2.1,2.1l-1.5-1.5l-6.9,6.9l-4.4,1.2l-0.2,3.4L22,44L17,45.2l-1.1,4.7l-2.4,0.5L10.8,53l-3.3-0.6l-0.8-3.7l22.5-22.5l-2-2
			l2.2-2.2l-0.1-0.5c-0.8-4.1,0.4-8.3,3.3-11.2c2.3-2.3,5.4-3.6,8.7-3.6c3.3,0,6.4,1.3,8.7,3.6C54.7,15.2,54.7,23,49.9,27.8z"/>
		<path class="st2" d="M48.5,12.1c-1.1-1.1-2.6-1.7-4.2-1.7c-1.6,0-3.1,0.6-4.2,1.7c-1.1,1.1-1.7,2.6-1.7,4.2c0,1.6,0.6,3.1,1.7,4.2
			c1.1,1.1,2.6,1.7,4.2,1.7c1.6,0,3.1-0.6,4.2-1.7C50.9,18.3,50.9,14.5,48.5,12.1z M47.2,19.3c-0.8,0.8-1.8,1.2-2.9,1.2
			c-1.1,0-2.1-0.4-2.9-1.2c-0.8-0.8-1.2-1.8-1.2-2.9c0-1.1,0.4-2.1,1.2-2.9c0.8-0.8,1.8-1.2,2.9-1.2c1.1,0,2.1,0.4,2.9,1.2
			C48.8,15,48.8,17.7,47.2,19.3z"/>
	</g>
</g>
</svg>
