<?xml version="1.0" encoding="utf-8"?>
<!-- Generator: Adobe Illustrator 22.1.0, SVG Export Plug-In . SVG Version: 6.00 Build 0)  -->
<svg version="1.1" id="Livello_1" xmlns="http://www.w3.org/2000/svg" xmlns:xlink="http://www.w3.org/1999/xlink" x="0px" y="0px"
	 viewBox="0 0 60 60" style="enable-background:new 0 0 60 60;" xml:space="preserve">
<style type="text/css">
	.st0{fill:url(#SVGID_1_);}
	.st1{fill:#FFFFFF;}
	.st2{fill:#1D1D1B;}
</style>
<g id="Sfondo">
	<g>
		<linearGradient id="SVGID_1_" gradientUnits="userSpaceOnUse" x1="30" y1="59.5" x2="30" y2="0.5">
			<stop  offset="0" style="stop-color:#E6E6EB"/>
			<stop  offset="0.1738" style="stop-color:#E2E2E6"/>
			<stop  offset="0.352" style="stop-color:#D5D4D8"/>
			<stop  offset="0.5323" style="stop-color:#C0BFC2"/>
			<stop  offset="0.7139" style="stop-color:#A4A2A4"/>
			<stop  offset="0.8949" style="stop-color:#828282"/>
			<stop  offset="1" style="stop-color:#6B6E6E"/>
		</linearGradient>
		<path class="st0" d="M10,59.5c-5.2,0-9.5-4.3-9.5-9.5V10c0-5.2,4.3-9.5,9.5-9.5h40c5.2,0,9.5,4.3,9.5,9.5v40
			c0,5.2-4.3,9.5-9.5,9.5H10z"/>
		<path class="st1" d="M50,1c5,0,9,4,9,9v40c0,5-4,9-9,9H10c-5,0-9-4-9-9V10c0-5,4-9,9-9H50 M50,0H10C4.5,0,0,4.5,0,10v40
			c0,5.5,4.5,10,10,10h40c5.5,0,10-4.5,10-10V10C60,4.5,55.5,0,50,0L50,0z"/>
	</g>
</g>
<g>
	<path class="st2" d="M20.1,14.5c0.1-0.5,0.3-1,0.5-1.4c0.1-0.1,0.2-0.3,0.3-0.4c-3.1,0.1-5.5,2.6-5.5,5.6v20.8h7.8
		c-0.1-0.6-0.2-1.2-0.2-1.7h-5.9v-19C17.1,16.5,18.4,14.9,20.1,14.5z"/>
	<circle class="st2" cx="21" cy="8.6" r="1.8"/>
	<path class="st2" d="M51.2,52.6c-0.6-1-1.1-1.8-1.5-2.4c-1-1.4-1.6-2.3-1.6-5.2l0-0.9c0.1-4.4,0.2-8.5-1.3-12
		c-1.1-2.5-2.2-3.7-3.5-3.7c-1.1,0-1.6,0.4-2,0.6c0,0,0,0,0,0c-0.2-0.1-0.3-0.3-0.5-0.5c-0.4-0.4-1-1.1-2-1.2c-0.1,0-0.2,0-0.3,0
		c-0.7,0-1.3,0.4-1.7,0.6c-0.1,0.1-0.2,0.1-0.3,0.2c0-0.1-0.1-0.2-0.1-0.3c-0.4-0.7-1.1-2.1-2.8-2.1c-0.7,0-1.2,0.1-1.7,0.3
		c-0.2-0.4-0.4-0.9-0.7-1.5c-0.6-1.4-1.4-3-2.1-4.8l0-0.1c-1.3-3.4-2.8-7.1-5.3-7.1c-0.2,0-0.3,0-0.5,0.1c-0.6,0.1-1.1,0.5-1.4,1
		c-0.9,1.6-0.2,4.5,1,8.4c0.3,1,0.6,1.9,0.7,2.7c0.3,1.6,0.8,3,1.3,4.5c0.4,1.1,0.8,2.2,1,3.3C23,36.1,25,41.9,27,44.2
		c0.6,0.7,1.3,1.2,2,1.8c0.6,0.5,1.2,1,1.7,1.5l0.3,0.3c3,3.5,4.4,5.1,5.9,9l0.3,0.7l0.8-0.2c4.3-0.9,8.5-2,12.8-3.4l1.1-0.3
		L51.2,52.6z M38.3,55.4c-1.5-3.7-3.1-5.4-6-8.8l-0.3-0.3c-0.6-0.7-1.2-1.2-1.9-1.7c-0.6-0.5-1.2-1-1.7-1.6c-1.7-1.9-3.3-7-0.9-9.5
		l0.4-0.4l-0.1-0.5c-0.3-1.3-0.7-2.6-1.2-3.9c-0.5-1.4-1-2.8-1.3-4.3c-0.2-0.8-0.5-1.8-0.8-2.8c-0.7-2.2-1.8-5.9-1.2-6.9
		c0.1-0.1,0.1-0.1,0.2-0.2c0,0,0.1,0,0.1,0c0.6,0,1.7,1,3.5,5.9l0,0.1c0.7,1.8,1.5,3.6,2.1,4.9c0.5,1,0.8,1.8,1,2.3l0.3,1l0.9-0.4
		c0.2-0.1,0.4-0.2,0.5-0.2c0.6-0.3,0.8-0.3,1.3-0.3c0.5,0,0.8,0.3,1.2,1.1c0.3,0.5,0.6,1,1.2,1.2c0.1,0,0.3,0.1,0.4,0.1
		c0.6,0,1.1-0.3,1.5-0.6c0.3-0.2,0.5-0.3,0.7-0.3c0,0,0,0,0,0c0.3,0,0.6,0.3,0.9,0.6c0.3,0.4,0.7,0.8,1.3,1c0.2,0.1,0.4,0.1,0.6,0.1
		h0c0.5,0,0.8-0.2,1-0.4c0.2-0.2,0.4-0.3,0.9-0.3c0.2,0,1,0.8,1.8,2.6c1.4,3.2,1.3,6.9,1.2,11.2l0,0.9c-0.1,3.5,0.8,4.7,1.9,6.3
		c0.3,0.4,0.6,0.8,0.9,1.3C45.4,53.6,41.9,54.6,38.3,55.4z"/>
	<path class="st2" d="M25,43.7H14.6c-2.5,0-4.5-2-4.5-4.5V8.8c0-2.5,2-4.5,4.5-4.5h12.9c2.5,0,4.5,2,4.5,4.5v14.4
		c0.1,0.3,0.3,0.6,0.4,0.9c0.1,0.2,0.1,0.3,0.2,0.4c0.3,0,0.6-0.1,0.9-0.1c0.1,0,0.2,0,0.3,0V8.8c0-3.5-2.8-6.3-6.3-6.3H14.6
		c-3.5,0-6.3,2.8-6.3,6.3v30.4c0,3.5,2.8,6.3,6.3,6.3h11.8c-0.1-0.1-0.3-0.3-0.4-0.4C25.7,44.7,25.3,44.3,25,43.7z"/>
</g>
</svg>
