<?xml version="1.0" encoding="utf-8"?>
<!-- Generator: Adobe Illustrator 23.0.0, SVG Export Plug-In . SVG Version: 6.00 Build 0)  -->
<svg version="1.1" id="Livello_1" xmlns="http://www.w3.org/2000/svg" xmlns:xlink="http://www.w3.org/1999/xlink" x="0px" y="0px"
	 viewBox="0 0 60 60" style="enable-background:new 0 0 60 60;" xml:space="preserve">
<style type="text/css">
	.st0{fill:#1D1D1B;stroke:#1D1D1B;stroke-miterlimit:10;}
</style>
<g>
	<path class="st0" d="M43,43.5v4.2h-2.2v-4.2h-5.5v4.2h-2.2v-4.2h-5.3v4.2h-2.4v-4.2h-5.5v4.2h-2v-4.2h-5.5v12.8h36.1V43.5H43z
		 M47.2,55H13.7V44.9h2.9V49h4.6v-4.2h2.9V49h5.1v-4.2h2.6V49h4.8v-4.2h2.9V49h4.8v-4.2h2.9V55z"/>
	<path class="st0" d="M17.6,29.9c0,5.8,8.9,10.3,9.3,10.4l2.3,1.1l-1.3-2.2c-2.5-4.3-3.9-7.1-1.5-9.5c1.6-1.6,2.2-3.1,2.4-4.3
		c1.4,1.6,2.1,3.1,2.1,4.4c0,1.5-0.9,2.3-1,2.3L28,33.5l2.3-0.1c1.1,0,2-0.5,2.6-1.4c1.6-2.3,0.9-6.8,0.3-9.5c2,1.7,3,3.6,3.2,5.8
		c0.5,5.8-5.5,11.6-5.6,11.6l-1.4,1.3h2c5.8,0,11.9-8.2,11.9-13.9c0-5.4-5-13.8-5.2-14.1l-3.3-5.4l1.9,6.1c0.5,1.4,0.5,2.6,0.4,3.6
		c-2.2-5-8.4-9.7-8.7-9.9l-3-2.2l1.8,3.2c2.7,4.8-1.2,9.9-3,11.8c-1.2-2.4-3.9-4-4-4.1l-2.3-1.3l1.2,2.3c1,1.8,0.4,3.8-0.3,6.2
		C18.2,25.3,17.6,27.5,17.6,29.9z M20.3,23.9c0.5-1.8,1-3.4,0.9-5.1c0.8,0.8,1.7,1.8,2,3l0.3,1.2l0.9-0.8c0.3-0.3,6.3-5.6,5.2-11.7
		c2.5,2.2,6.4,6.2,6.6,9.7l0.2,2.2l1.2-1.8c0-0.1,0.8-1.2,0.9-3.1c1.4,2.9,3.1,6.9,3.1,9.8c0,2.4-1.3,5.5-3.4,8.1
		c-1.5,1.8-3.2,3.2-4.8,3.8c1.9-2.3,4.8-6.6,4.4-11.1c-0.3-3.2-2.2-6-5.7-8.2l-1.8-1.1l0.6,2c0.5,1.7,1.5,5.7,1.1,8.4
		c-0.2-2-1.5-4.1-3.8-6.3l-1.9-1.7l0.6,2.5c0,0.1,0.5,2.3-2,4.9c-2.6,2.7-1.7,5.7-0.1,8.9c-2.5-1.6-6-4.5-6-7.7
		C19.2,27.7,19.7,25.8,20.3,23.9z"/>
</g>
</svg>
