<?xml version="1.0" encoding="utf-8"?>
<!-- Generator: Adobe Illustrator 23.0.3, SVG Export Plug-In . SVG Version: 6.00 Build 0)  -->
<svg version="1.1" id="Livello_1" xmlns="http://www.w3.org/2000/svg" xmlns:xlink="http://www.w3.org/1999/xlink" x="0px" y="0px"
	 viewBox="0 0 120 120" style="enable-background:new 0 0 120 120;" xml:space="preserve">
<path d="M105,77.8l-1.7-1c1.7-0.5,3.1-1.6,3.9-3.2c0.9-1.6,1.2-3.5,0.7-5.3c-0.8-3.1-3.6-5.2-6.8-5.2c-0.6,0-1.2,0.1-1.8,0.2
	l-13.2,3.5l-12.1-7l13.2-7.6l12.5,3.4c0.6,0.2,1.2,0.2,1.8,0.2c3.2,0,6-2.1,6.8-5.2c0.9-3.4-0.9-6.9-4-8.3L105,42
	c3.4-1.9,4.5-6.2,2.6-9.6c-1.3-2.2-3.6-3.5-6.1-3.5c-1.2,0-2.4,0.3-3.5,0.9l-0.8,0.5c0.3-3.4-1.8-6.6-5.2-7.5
	c-0.6-0.2-1.2-0.2-1.8-0.2c-3.2,0-6,2.1-6.8,5.2l-3.3,12.4l-13.1,7.5V33.3l9.4-9.4c1.3-1.3,2.1-3.1,2.1-5c0-1.9-0.7-3.6-2.1-5
	c-1.3-1.3-3.1-2.1-5-2.1c-1.7,0-3.2,0.6-4.5,1.6V12c0-3.9-3.2-7-7-7c-3.9,0-7,3.2-7,7V13c-1.2-0.8-2.6-1.3-4-1.3
	c-1.9,0-3.6,0.7-5,2.1c-2.7,2.7-2.7,7.2,0,9.9l9,9v15l-12.7-7.3l-3.5-13c-0.8-3.1-3.6-5.2-6.8-5.2c-0.6,0-1.2,0.1-1.8,0.2
	c-1.8,0.5-3.3,1.6-4.3,3.3c-0.8,1.5-1.1,3.2-0.8,4.8l-1.2-0.7c-1.1-0.6-2.3-0.9-3.5-0.9c-2.5,0-4.8,1.3-6.1,3.5
	c-0.9,1.6-1.2,3.5-0.7,5.3c0.5,1.8,1.6,3.3,3.3,4.3l1.1,0.6c-1.5,0.6-2.8,1.6-3.6,3.1c-0.9,1.6-1.2,3.5-0.7,5.3
	c0.8,3.1,3.6,5.2,6.8,5.2c0.6,0,1.2-0.1,1.8-0.2l12.9-3.4l12.7,7.3l-12.5,7.2l-12.7-3.4c-0.6-0.2-1.2-0.2-1.8-0.2
	c-3.2,0-6,2.1-6.8,5.2c-0.5,1.8-0.2,3.7,0.7,5.3c0.8,1.4,2,2.4,3.4,3l-1.4,0.8c-3.4,1.9-4.5,6.2-2.6,9.6c1.3,2.2,3.6,3.5,6.1,3.5
	c1.2,0,2.4-0.3,3.5-0.9l1.5-0.9c-0.6,3.5,1.6,6.9,5.1,7.9c0.6,0.2,1.2,0.2,1.8,0.2c3.2,0,6-2.1,6.8-5.2l3.4-12.8L53,72v14.4
	l-9.5,9.5c-1.3,1.3-2.1,3.1-2.1,5c0,1.9,0.7,3.6,2.1,5c1.3,1.3,3.1,2.1,5,2.1c1.7,0,3.2-0.6,4.5-1.6v1.7c0,3.9,3.2,7,7,7
	c3.9,0,7-3.2,7-7v-1.8c1.3,1.1,2.8,1.6,4.5,1.6c1.9,0,3.6-0.7,5-2.1c2.7-2.7,2.7-7.2,0-9.9l-9.5-9.5V72.1l12.3,7.1L82.8,92
	c0.8,3.1,3.6,5.2,6.8,5.2c0.6,0,1.2-0.1,1.8-0.2c1.8-0.5,3.3-1.6,4.3-3.3c0.8-1.4,1.1-3,0.9-4.6l1.4,0.8c1.1,0.6,2.3,0.9,3.5,0.9
	l0,0c2.5,0,4.8-1.3,6.1-3.5c0.9-1.6,1.2-3.5,0.7-5.3C107.8,80.2,106.7,78.7,105,77.8z M104.7,85.7c-0.6,1.1-1.9,1.8-3.2,1.8l0,0
	c-0.6,0-1.3-0.2-1.8-0.5l-8.5-4.9l1.9,7.2c0.3,0.9,0.1,1.9-0.4,2.8c-0.5,0.8-1.3,1.4-2.2,1.7c-0.3,0.1-0.6,0.1-0.9,0.1
	c-1.6,0-3.1-1.1-3.5-2.7L82.3,77L63.7,66.2v21.6l10.5,10.5c0.7,0.7,1.1,1.6,1.1,2.6c0,1-0.4,1.9-1.1,2.6c-0.7,0.7-1.6,1.1-2.6,1.1
	c-1,0-1.9-0.4-2.6-1.1L63.7,98v9.9c0,2-1.6,3.6-3.6,3.6c-2,0-3.6-1.6-3.6-3.6v-9.9l-5.3,5.3c-0.7,0.7-1.6,1.1-2.6,1.1
	c-1,0-1.9-0.4-2.6-1.1c-0.7-0.7-1.1-1.6-1.1-2.6c0-1,0.4-1.9,1.1-2.6l10.5-10.5V66.1L37.7,76.9l-3.8,14.2c-0.4,1.6-1.9,2.7-3.5,2.7
	c-0.3,0-0.6,0-0.9-0.1c-1.9-0.5-3.1-2.5-2.6-4.5l1.9-7.2l-8.6,5c-0.6,0.3-1.2,0.5-1.8,0.5c-1.3,0-2.5-0.7-3.2-1.8
	c-1-1.7-0.4-4,1.3-5l8.4-4.9L18,74c-0.9-0.3-1.7-0.9-2.2-1.7c-0.5-0.8-0.6-1.8-0.4-2.8c0.4-1.6,1.9-2.7,3.5-2.7c0.3,0,0.6,0,0.9,0.1
	l14,3.8l18.8-10.8l-19-11l-14.2,3.8c-0.3,0.1-0.6,0.1-0.9,0.1c-1.6,0-3.1-1.1-3.5-2.7c-0.2-0.9-0.1-1.9,0.4-2.8
	c0.5-0.8,1.3-1.4,2.2-1.7l7.2-1.9L16.6,39c-0.8-0.5-1.4-1.3-1.7-2.2c-0.2-0.9-0.1-1.9,0.4-2.8c0.6-1.1,1.9-1.8,3.2-1.8
	c0.6,0,1.3,0.2,1.8,0.5l8.3,4.8l-2-7.4c-0.3-0.9-0.1-1.9,0.4-2.8c0.5-0.8,1.3-1.4,2.2-1.7c0.3-0.1,0.6-0.1,0.9-0.1
	c1.6,0,3.1,1.1,3.5,2.7l3.9,14.4l19,11V31.3l-10-10c-1.4-1.4-1.4-3.7,0-5.1c0.7-0.7,1.6-1.1,2.6-1.1c1,0,1.9,0.4,2.6,1.1l4.9,4.9v-9
	c0-2,1.6-3.6,3.6-3.6c2,0,3.6,1.6,3.6,3.6v9.6l5.3-5.3c0.7-0.7,1.6-1.1,2.6-1.1c1,0,1.9,0.4,2.6,1.1c0.7,0.7,1.1,1.6,1.1,2.6
	c0,1-0.4,1.9-1.1,2.6L63.7,31.9v21.7L83,42.4l3.7-13.7c0.4-1.6,1.9-2.7,3.5-2.7c0.3,0,0.6,0,0.9,0.1c1.9,0.5,3.1,2.5,2.6,4.4
	l-1.8,6.7l7.8-4.5c0.6-0.3,1.2-0.5,1.8-0.5c1.3,0,2.5,0.7,3.2,1.8c1,1.7,0.4,4-1.3,5l-7.7,4.4l6.9,1.8c1.9,0.5,3.1,2.5,2.6,4.4
	c-0.4,1.6-1.9,2.7-3.5,2.7c-0.3,0-0.6,0-0.9-0.1l-13.9-3.7L67.2,59.9l18.4,10.6l14.6-3.9c0.3-0.1,0.6-0.1,0.9-0.1
	c1.6,0,3.1,1.1,3.5,2.7c0.3,0.9,0.1,1.9-0.4,2.8c-0.5,0.8-1.3,1.4-2.2,1.7l-7.6,2l8.8,5.1c0.8,0.5,1.4,1.3,1.7,2.2
	C105.3,83.9,105.1,84.8,104.7,85.7z"/>
</svg>
