<?xml version="1.0" encoding="utf-8"?>
<!-- Generator: Adobe Illustrator 23.0.3, SVG Export Plug-In . SVG Version: 6.00 Build 0)  -->
<svg version="1.1" id="Livello_1" xmlns="http://www.w3.org/2000/svg" xmlns:xlink="http://www.w3.org/1999/xlink" x="0px" y="0px"
	 viewBox="0 0 120 120" style="enable-background:new 0 0 120 120;" xml:space="preserve">
<g>
	<path d="M43.2,41.4c2.9,2.6,5.3,4.9,5.3,8V56c0,3.7,3,6.8,6.5,6.8h10c3.6,0,6.5-2.9,6.5-6.5v-6.8c0-3.1,2.5-5.4,5.3-8
		c3.2-2.9,6.8-6.3,6.8-11.5c0-13-10.6-23.6-23.6-23.6C46.9,6.4,36.4,17,36.4,30C36.4,35.1,40,38.5,43.2,41.4z M59.9,10.1
		c10.9,0,19.8,8.9,19.8,19.8c0,3.5-2.7,6-5.6,8.7c-3.1,2.8-6.5,6-6.5,10.8v6.8c0,1.5-1.2,2.7-2.7,2.7h-10c-1.4,0-2.7-1.4-2.7-3v-6.5
		c0-4.8-3.5-8-6.5-10.8c-2.9-2.7-5.6-5.2-5.6-8.7C40.1,19,49,10.1,59.9,10.1z"/>
	<path d="M67.8,73.6H52.5c-1.2,0-2.1,0.9-2.1,2.1c0,1.2,0.9,2.1,2.1,2.1h15.3c1.2,0,2.1-0.9,2.1-2.1C69.9,74.5,68.9,73.6,67.8,73.6z
		"/>
	<path d="M67.8,66.5H52.5c-1.2,0-2.1,0.9-2.1,2.1c0,1.2,0.9,2.1,2.1,2.1h15.3c1.2,0,2.1-0.9,2.1-2.1C69.9,67.5,68.9,66.5,67.8,66.5z
		"/>
	<path d="M5,113.6h110V61.1L5,113.6z M111.3,109.9H21.5L111.3,67V109.9z"/>
	<rect x="75.4" y="91.8" width="28.4" height="4.7"/>
</g>
</svg>
