<?xml version="1.0" encoding="utf-8"?>
<!-- Generator: Adobe Illustrator 23.0.3, SVG Export Plug-In . SVG Version: 6.00 Build 0)  -->
<svg version="1.1" id="Livello_1" xmlns="http://www.w3.org/2000/svg" xmlns:xlink="http://www.w3.org/1999/xlink" x="0px" y="0px"
	 viewBox="0 0 120 120" style="enable-background:new 0 0 120 120;" xml:space="preserve">
<style type="text/css">
	.st0{fill:#FFFFFF;}
</style>
<g>
	<path class="st0" d="M72.4,108.3H48.2c-1.8,0-3.3,1.5-3.3,3.3s1.5,3.3,3.3,3.3h24.2c1.8,0,3.3-1.5,3.3-3.3
		C75.7,109.8,74.2,108.3,72.4,108.3z M72.4,112.6H48.2c-0.5,0-1-0.4-1-1c0-0.5,0.4-1,1-1h24.2c0.5,0,1,0.4,1,1
		S72.9,112.6,72.4,112.6z"/>
	<path class="st0" d="M72.4,99.6H48.2c-1.8,0-3.3,1.5-3.3,3.3s1.5,3.3,3.3,3.3h24.2c1.8,0,3.3-1.5,3.3-3.3
		C75.7,101.1,74.2,99.6,72.4,99.6z M72.4,103.9H48.2c-0.5,0-1-0.4-1-1c0-0.5,0.4-1,1-1h24.2c0.5,0,1,0.4,1,1S72.9,103.9,72.4,103.9z
		"/>
	<path class="st0" d="M72.4,90.4H48.2c-1.8,0-3.3,1.5-3.3,3.3s1.5,3.3,3.3,3.3h24.2c1.8,0,3.3-1.5,3.3-3.3
		C75.7,91.9,74.2,90.4,72.4,90.4z M72.4,94.7H48.2c-0.5,0-1-0.4-1-1c0-0.5,0.4-1,1-1h24.2c0.5,0,1,0.4,1,1
		C73.4,94.3,72.9,94.7,72.4,94.7z"/>
	<path class="st0" d="M60,5C41,5,25.7,20.4,25.7,39.3c0,13.5,19.2,18.1,19.2,30.8c0,8.7,0,10.3,0,10.3c0,4,3.3,7.7,7.3,7.7H68
		c4,0,7.3-3.2,7.3-7.3c0,0,0-2.8,0-10.8c0-12.7,19.2-17.3,19.2-30.8C94.3,20.4,79,5,60,5z M81.9,52.5c-5,4.6-10.6,9.8-10.6,17.7V81
		c0,1.9-1.6,3.5-3.5,3.5H52.1c-1.8,0-3.5-1.9-3.5-3.9V70.2c0-7.9-5.6-13.1-10.6-17.7c-4.6-4.3-8.6-7.9-8.6-13.2
		C29.5,22.5,43.2,8.8,60,8.8s30.5,13.7,30.5,30.5C90.5,44.5,86.5,48.2,81.9,52.5z"/>
	<path class="st0" d="M81.9,52.5c-5,4.6-10.6,9.8-10.6,17.7V81c0,1.9-1.6,3.5-3.5,3.5H52.1c-1.8,0-3.5-1.9-3.5-3.9V70.2
		c0-7.9-5.6-13.1-10.6-17.7c-4.6-4.3-8.6-7.9-8.6-13.2C29.5,22.5,43.2,8.8,60,8.8s30.5,13.7,30.5,30.5
		C90.5,44.5,86.5,48.2,81.9,52.5z"/>
</g>
</svg>
