<?xml version="1.0" encoding="utf-8"?>
<!-- Generator: Adobe Illustrator 22.1.0, SVG Export Plug-In . SVG Version: 6.00 Build 0)  -->
<svg version="1.1" xmlns="http://www.w3.org/2000/svg" xmlns:xlink="http://www.w3.org/1999/xlink" x="0px" y="0px"
	 viewBox="0 0 60 60" style="enable-background:new 0 0 60 60;" xml:space="preserve">
<style type="text/css">
	.st0{fill:url(#SVGID_1_);}
	.st1{fill:#FFFFFF;}
	.st2{fill:#1D1D1B;}
</style>
<g id="Sfondo">
	<g>
		
			<linearGradient id="SVGID_1_" gradientUnits="userSpaceOnUse" x1="30" y1="0.5" x2="30" y2="59.5" gradientTransform="matrix(1 0 0 -1 0 60)">
			<stop  offset="0" style="stop-color:#E6E6EB"/>
			<stop  offset="0.1738" style="stop-color:#E2E2E6"/>
			<stop  offset="0.352" style="stop-color:#D5D4D8"/>
			<stop  offset="0.5323" style="stop-color:#C0BFC2"/>
			<stop  offset="0.7139" style="stop-color:#A4A2A4"/>
			<stop  offset="0.8949" style="stop-color:#828282"/>
			<stop  offset="1" style="stop-color:#6B6E6E"/>
		</linearGradient>
		<path class="st0" d="M10,59.5c-5.2,0-9.5-4.3-9.5-9.5V10c0-5.2,4.3-9.5,9.5-9.5h40c5.2,0,9.5,4.3,9.5,9.5v40
			c0,5.2-4.3,9.5-9.5,9.5H10z"/>
		<path class="st1" d="M50,1c5,0,9,4,9,9v40c0,5-4,9-9,9H10c-5,0-9-4-9-9V10c0-5,4-9,9-9H50 M50,0H10C4.5,0,0,4.5,0,10v40
			c0,5.5,4.5,10,10,10h40c5.5,0,10-4.5,10-10V10C60,4.5,55.5,0,50,0L50,0z"/>
	</g>
</g>
<g id="Livello_1">
	<g>
		<path class="st2" d="M48,12.7H22c-2.6,0-4.6,2.1-4.6,4.6v0.4c0,2.6,2.1,4.6,4.6,4.6h26c2.6,0,4.6-2.1,4.6-4.6v-0.4
			C52.6,14.8,50.5,12.7,48,12.7z M50.8,17.7c0,1.5-1.3,2.8-2.8,2.8H22c-1.5,0-2.8-1.3-2.8-2.8v-0.4c0-1.5,1.3-2.8,2.8-2.8h26
			c1.5,0,2.8,1.3,2.8,2.8V17.7z"/>
		<path class="st2" d="M28.3,52.8c0,0.2-0.1,0.3-0.3,0.3H9.5c-0.2,0-0.3-0.1-0.3-0.3V7.2c0-0.2,0.1-0.3,0.3-0.3H28
			c0.2,0,0.3,0.1,0.3,0.3v4.2h1.8V7.2C30.1,6,29.2,5,28,5H9.5C8.3,5,7.4,6,7.4,7.2v45.7c0,1.2,1,2.2,2.2,2.2H28c1.2,0,2.2-1,2.2-2.2
			V23.8h-1.8V52.8z"/>
		<path class="st2" d="M23.5,37.4c0-2.6-2.1-4.7-4.7-4.7c-2.6,0-4.7,2.1-4.7,4.7c0,1.7,0.9,3.2,2.3,4.1l-0.9,5.2
			c-0.1,0.7,0,1.4,0.5,1.9c0.4,0.4,0.9,0.7,1.5,0.7h2.8c0.6,0,1.1-0.2,1.5-0.7c0.4-0.5,0.6-1.2,0.5-1.9l-0.9-5.2
			C22.6,40.6,23.5,39,23.5,37.4z M20,40.2l-0.5,0.2V41l1,5.9c0,0.2,0,0.4-0.1,0.5c-0.1,0.1-0.2,0.1-0.3,0.1h-2.8
			c-0.1,0-0.2,0-0.3-0.1C17,47.3,17,47.1,17,46.9l1-5.5l0.7-0.7l-1.1-0.5c-1.2-0.5-1.9-1.6-1.9-2.9c0-1.7,1.4-3.1,3.1-3.1
			c1.7,0,3.1,1.4,3.1,3.1C21.9,38.6,21.1,39.7,20,40.2z"/>
	</g>
</g>
</svg>
