<?xml version="1.0" encoding="utf-8"?>
<!-- Generator: Adobe Illustrator 23.0.0, SVG Export Plug-In . SVG Version: 6.00 Build 0)  -->
<svg version="1.1" id="Livello_1" xmlns="http://www.w3.org/2000/svg" xmlns:xlink="http://www.w3.org/1999/xlink" x="0px" y="0px"
	 viewBox="0 0 60 60" style="enable-background:new 0 0 60 60;" xml:space="preserve">
<style type="text/css">
	.st0{fill:url(#SVGID_1_);}
	.st1{fill:#FFFFFF;}
	.st2{fill:#1D1D1B;}
</style>
<g id="Sfondo">
	<g>
		
			<linearGradient id="SVGID_1_" gradientUnits="userSpaceOnUse" x1="30" y1="1079.61" x2="30" y2="1020.61" gradientTransform="matrix(1 0 0 1 0 -1020.11)">
			<stop  offset="0" style="stop-color:#E6E6EB"/>
			<stop  offset="0.1738" style="stop-color:#E2E2E6"/>
			<stop  offset="0.352" style="stop-color:#D5D4D8"/>
			<stop  offset="0.5323" style="stop-color:#C0BFC2"/>
			<stop  offset="0.7139" style="stop-color:#A4A2A4"/>
			<stop  offset="0.8949" style="stop-color:#828282"/>
			<stop  offset="1" style="stop-color:#6B6E6E"/>
		</linearGradient>
		<path class="st0" d="M10,59.5c-5.2,0-9.5-4.3-9.5-9.5V10c0-5.2,4.3-9.5,9.5-9.5h40c5.2,0,9.5,4.3,9.5,9.5v40
			c0,5.2-4.3,9.5-9.5,9.5H10z"/>
		<path class="st1" d="M50,1c5,0,9,4,9,9v40c0,5-4,9-9,9H10c-5,0-9-4-9-9V10c0-5,4-9,9-9H50 M50,0H10C4.5,0,0,4.5,0,10v40
			c0,5.5,4.5,10,10,10h40c5.5,0,10-4.5,10-10V10C60,4.5,55.5,0,50,0L50,0z"/>
	</g>
</g>
<path class="st2" d="M50.1,15.9c-0.3-0.5-0.8-0.9-1.5-1.1c-0.2-0.1-0.4-0.1-0.7-0.1c-1.7,0-2.7,1.6-3,3c-0.4,1.2-1.5,5.1-2,7.1
	c-0.1,0.3-0.1,0.5-0.2,0.6c0-0.1,0-0.1,0-0.2c0-0.1,0-0.2,0-0.3c0-2.7,0.5-12.2,0.6-13.4c0.1-0.6,0.2-2.3-0.6-3.3
	c-0.4-0.5-1-0.8-1.6-0.9c-0.1,0-0.1,0-0.2,0c-1.9,0-2.7,1.8-2.8,3.6C38,11.4,36.9,21,36.5,23.9c0,0.1,0,0.1,0,0.2c0-0.1,0-0.1,0-0.2
	l0,0l0-0.1c0-0.1-0.5-12.2-0.7-14.6l0-0.2C35.7,8,35.5,5,32.8,5c-1.2,0-2.7,0.8-2.7,4.3c0,1.7,0.1,4.1,0.1,6.7l0,0.2
	c0.1,2.5,0.1,5.1,0.1,6.9c0,0.2,0,0.4,0,0.5l0,0.1c0,0.2,0,0.6,0,0.9c-0.2-0.3-0.4-0.7-0.5-1.2c0-0.1-2.6-8.2-3.5-11l0-0.1
	c-0.5-1.6-1.3-4-3.3-4c-0.2,0-0.4,0-0.7,0.1c-2.2,0.6-1.7,3.4-1.4,5.2l0,0.1c0.1,0.3,0.1,0.7,0.1,0.9c0.1,0.5,0.3,1.7,0.6,3.5l0,0.2
	c0.9,4.4,2.3,11.7,2.3,14.3c0,3-1.4,3-1.8,3c-0.3,0-0.6,0-0.9-0.1c-1.2-0.3-3.2-1.3-5.4-2.5c-1.5-0.8-2.6-1.2-3.6-1.2
	c-0.8,0-1.6,0.3-2.1,0.9c-0.5,0.5-0.8,1.3-0.7,2.3c0.1,0.7,0.4,2.4,2.3,3.7c1.6,1.1,5.1,4,5.7,4.4l8.1,8.1c0.4,0.5,3.6,4,10.6,4
	c8,0,11.1-6,11.6-9.6c0.2-1.3,0.3-3.1,0.4-5c0-0.6,0.1-1.2,0.1-1.7c0.1-1.8,0-3.6-0.1-5.4l0-0.1c-0.1-1.8-0.2-3.4,0-4.6
	c0.3-2.6,1.2-7.1,1.8-9.3c0-0.1,0-0.1,0-0.2l0,0C50.3,18.4,50.7,17,50.1,15.9z M48.7,18.7L48.7,18.7c0,0.1-0.1,0.2-0.1,0.3
	c-0.6,2.3-1.5,6.8-1.9,9.5c-0.2,1.3-0.1,3.1,0,4.9l0,0.1c0.1,1.7,0.2,3.5,0.1,5.2c0,0.6-0.1,1.1-0.1,1.7c-0.1,1.8-0.2,3.6-0.4,4.8
	c-0.5,3.1-3.1,8.3-10.1,8.3c-6.5,0-9.2-3.1-9.5-3.5l0,0l-8.2-8.2l-0.1-0.1c-0.4-0.3-4.1-3.4-5.8-4.5c-1.4-0.9-1.6-2.1-1.7-2.6
	c-0.1-0.6,0.1-1,0.2-1.1c0.3-0.3,0.6-0.4,1.1-0.4c0.7,0,1.7,0.4,2.9,1c2.2,1.3,4.4,2.3,5.7,2.7c0.5,0.1,0.9,0.2,1.3,0.2
	c1,0,3.3-0.4,3.3-4.5c0-2.7-1.5-10.1-2.3-14.5l0-0.2c-0.3-1.6-0.6-3-0.6-3.4c0-0.3-0.1-0.7-0.2-1l0-0.1c-0.3-1.7-0.5-3.2,0.3-3.5
	c0.1,0,0.2,0,0.3,0c0.9,0,1.5,1.8,1.9,2.9l0,0.1c0.9,2.8,3.4,10.9,3.5,10.9c0.1,0.3,0.8,2.6,2.1,2.6c0.1,0,0.2,0,0.3,0
	c1.1-0.3,1.1-1.5,1.1-2.7l0-0.1c0-0.2,0-0.3,0-0.5c0-1.8-0.1-4.5-0.1-7l0-0.2c-0.1-2.6-0.1-5-0.1-6.7c0-2.5,0.7-2.8,1.2-2.8
	c0.9,0,1.3,0.8,1.4,2.7l0,0.2c0.2,2.4,0.7,14.2,0.7,14.5c0,0.3,0,1.8,0.6,2.5c0.2,0.2,0.5,0.3,0.8,0.3c1.2,0,1.3-1,1.5-2l0,0
	c0-0.2,0-0.3,0.1-0.5c0.5-3.1,1.6-13.1,1.6-13.2l0-0.1c0-0.1,0.1-2.1,1.3-2.1c0,0,0.1,0,0.1,0c0.2,0,0.4,0.1,0.6,0.3
	c0.4,0.5,0.4,1.7,0.3,2.2l0,0.1c-0.1,1.1-0.6,10.8-0.6,13.5c0,0.1,0,0.2,0,0.3c0,0.8,0,1.6,0.4,2.1c0.2,0.2,0.5,0.3,0.8,0.3
	c1.4,0,1.7-1.8,1.9-2.5c0.4-2,1.6-5.8,1.9-7l0-0.1c0-0.1,0.4-1.8,1.5-1.8c0.1,0,0.2,0,0.3,0c0.4,0.1,0.5,0.3,0.6,0.4
	C49.1,17.2,48.8,18.2,48.7,18.7z"/>
</svg>
