<?xml version="1.0" encoding="utf-8"?>
<!-- Generator: Adobe Illustrator 23.0.0, SVG Export Plug-In . SVG Version: 6.00 Build 0)  -->
<svg version="1.1" id="Livello_1" xmlns="http://www.w3.org/2000/svg" xmlns:xlink="http://www.w3.org/1999/xlink" x="0px" y="0px"
	 viewBox="0 0 60 60" style="enable-background:new 0 0 60 60;" xml:space="preserve">
<style type="text/css">
	.st0{fill:url(#SVGID_1_);stroke:#00FF00;stroke-miterlimit:10;}
	.st1{fill:#FFFFFF;stroke:#00FF00;stroke-miterlimit:10;}
	.st2{fill:#FF0000;}
</style>
<g id="Sfondo">
	<g>
		
			<linearGradient id="SVGID_1_" gradientUnits="userSpaceOnUse" x1="30" y1="1079.61" x2="30" y2="1020.61" gradientTransform="matrix(1 0 0 1 0 -1020.11)">
			<stop  offset="0" style="stop-color:#E6E6EB"/>
			<stop  offset="0.1738" style="stop-color:#E2E2E6"/>
			<stop  offset="0.352" style="stop-color:#D5D4D8"/>
			<stop  offset="0.5323" style="stop-color:#C0BFC2"/>
			<stop  offset="0.7139" style="stop-color:#A4A2A4"/>
			<stop  offset="0.8949" style="stop-color:#828282"/>
			<stop  offset="1" style="stop-color:#6B6E6E"/>
		</linearGradient>
		<path class="st0" d="M10,59.5c-5.2,0-9.5-4.3-9.5-9.5V10c0-5.2,4.3-9.5,9.5-9.5h40c5.2,0,9.5,4.3,9.5,9.5v40
			c0,5.2-4.3,9.5-9.5,9.5H10z"/>
		<path class="st1" d="M50,1c5,0,9,4,9,9v40c0,5-4,9-9,9H10c-5,0-9-4-9-9V10c0-5,4-9,9-9H50 M50,0H10C4.5,0,0,4.5,0,10v40
			c0,5.5,4.5,10,10,10h40c5.5,0,10-4.5,10-10V10C60,4.5,55.5,0,50,0L50,0z"/>
	</g>
</g>
<g>
	<path class="st2" d="M28.3,22.6c-3.6,0-6.5,2.9-6.5,6.5c0,3.6,2.9,6.5,6.5,6.5c3.6,0,6.5-2.9,6.5-6.5
		C34.8,25.5,31.9,22.6,28.3,22.6z M28.3,34.3c-2.9,0-5.2-2.3-5.2-5.2c0-2.9,2.3-5.2,5.2-5.2c2.9,0,5.2,2.3,5.2,5.2
		C33.5,32,31.1,34.3,28.3,34.3z"/>
	<path class="st2" d="M47.9,25.8C46.3,16.3,38,9.1,28.2,9.1c-11,0-20,9-20,20c0,11,9,20,20,20h0.7V42h-0.7
		c-7.1,0-12.9-5.8-12.9-12.9c0-7.1,5.8-12.9,12.9-12.9c5.9,0,11,4,12.5,9.6h-5.3l9.3,16l9.3-16H47.9z M37.7,27.2h4.6l-0.2-0.8
		c-1.3-6.7-7.2-11.5-14-11.5c-7.9,0-14.3,6.4-14.3,14.3c0,7.6,6,13.9,13.6,14.2v4.4c-10-0.4-18-8.6-18-18.6
		c0-10.3,8.4-18.7,18.7-18.7c9.3,0,17.2,6.9,18.5,16.1l0.1,0.6h4.8l-6.9,12L37.7,27.2z"/>
</g>
</svg>
