<?xml version="1.0" encoding="utf-8"?>
<!-- Generator: Adobe Illustrator 23.0.0, SVG Export Plug-In . SVG Version: 6.00 Build 0)  -->
<svg version="1.1" id="Livello_1" xmlns="http://www.w3.org/2000/svg" xmlns:xlink="http://www.w3.org/1999/xlink" x="0px" y="0px"
	 viewBox="0 0 60 60" style="enable-background:new 0 0 60 60;" xml:space="preserve">
<style type="text/css">
	.st0{fill:url(#SVGID_1_);}
	.st1{fill:#FFFFFF;}
	.st2{fill:#FF0000;stroke:#FF0000;stroke-miterlimit:10;}
</style>
<g id="Sfondo">
	<g>
		
			<linearGradient id="SVGID_1_" gradientUnits="userSpaceOnUse" x1="30.0755" y1="1081.0765" x2="30.0755" y2="1019.2379" gradientTransform="matrix(1 0 0 1 0 -1020.11)">
			<stop  offset="0" style="stop-color:#E6E6EB"/>
			<stop  offset="0.1738" style="stop-color:#E2E2E6"/>
			<stop  offset="0.352" style="stop-color:#D5D4D8"/>
			<stop  offset="0.5323" style="stop-color:#C0BFC2"/>
			<stop  offset="0.7139" style="stop-color:#A4A2A4"/>
			<stop  offset="0.8949" style="stop-color:#828282"/>
			<stop  offset="1" style="stop-color:#6B6E6E"/>
		</linearGradient>
		<path class="st0" d="M9,61C3.5,61-1,56.5-1,51V9.1c0-5.5,4.5-10,10-10h42.2c5.5,0,10,4.5,10,10V51c0,5.5-4.5,10-10,10H9z"/>
		<path class="st1" d="M51.2-0.3c5.3,0,9.5,4.2,9.5,9.4V51c0,5.2-4.2,9.4-9.5,9.4H9c-5.3,0-9.5-4.2-9.5-9.4V9.1
			c0-5.2,4.2-9.4,9.5-9.4H51.2 M51.2-1.4H9C3.2-1.4-1.6,3.3-1.6,9.1V51c0,5.8,4.7,10.5,10.5,10.5h42.2c5.8,0,10.5-4.7,10.5-10.5V9.1
			C61.7,3.3,57-1.4,51.2-1.4L51.2-1.4z"/>
	</g>
</g>
<g>
	<path class="st2" d="M28.3,22.6c-3.6,0-6.5,2.9-6.5,6.5c0,3.6,2.9,6.5,6.5,6.5c3.6,0,6.5-2.9,6.5-6.5
		C34.8,25.5,31.9,22.6,28.3,22.6z M28.3,34.3c-2.9,0-5.2-2.3-5.2-5.2c0-2.9,2.3-5.2,5.2-5.2c2.9,0,5.2,2.3,5.2,5.2
		C33.5,32,31.1,34.3,28.3,34.3z"/>
	<path class="st2" d="M47.9,25.8C46.3,16.3,38,9.1,28.2,9.1c-11,0-20,9-20,20c0,11,9,20,20,20h0.7V42h-0.7
		c-7.1,0-12.9-5.8-12.9-12.9c0-7.1,5.8-12.9,12.9-12.9c5.9,0,11,4,12.5,9.6h-5.3l9.3,16l9.3-16H47.9z M37.7,27.2h4.6l-0.2-0.8
		c-1.3-6.7-7.2-11.5-14-11.5c-7.9,0-14.3,6.4-14.3,14.3c0,7.6,6,13.9,13.6,14.2v4.4c-10-0.4-18-8.6-18-18.6
		c0-10.3,8.4-18.7,18.7-18.7c9.3,0,17.2,6.9,18.5,16.1l0.1,0.6h4.8l-6.9,12L37.7,27.2z"/>
</g>
</svg>
