<?xml version="1.0" encoding="utf-8"?>
<!-- Generator: Adobe Illustrator 23.0.0, SVG Export Plug-In . SVG Version: 6.00 Build 0)  -->
<svg version="1.1" id="Livello_1" xmlns="http://www.w3.org/2000/svg" xmlns:xlink="http://www.w3.org/1999/xlink" x="0px" y="0px"
	 viewBox="0 0 1669 531" style="enable-background:new 0 0 1669 531;" xml:space="preserve">
<style type="text/css">
	.st0{fill-rule:evenodd;clip-rule:evenodd;fill:none;stroke:#000000;stroke-width:5;stroke-linejoin:round;stroke-miterlimit:10;}
	.st1{fill:none;stroke:#000000;stroke-width:3;stroke-linejoin:round;stroke-miterlimit:10;}
	.st2{fill:url(#SVGID_1_);stroke:#000000;stroke-width:3;stroke-linejoin:round;stroke-miterlimit:10;}
	.st3{font-family:'MyriadPro-Regular';}
	.st4{font-size:12px;}
	.st5{fill:url(#SVGID_2_);stroke:#000000;stroke-width:3;stroke-linejoin:round;stroke-miterlimit:10;}
	.st6{fill:none;stroke:#000000;stroke-width:10;stroke-linejoin:round;stroke-miterlimit:10;}
	.st7{fill:url(#SVGID_3_);stroke:#000000;stroke-width:3;stroke-linejoin:round;stroke-miterlimit:10;}
	.st8{fill:url(#SVGID_4_);stroke:#000000;stroke-width:3;stroke-linejoin:round;stroke-miterlimit:10;}
	.st9{fill:url(#SVGID_5_);stroke:#000000;stroke-width:3;stroke-linejoin:round;stroke-miterlimit:10;}
	.st10{fill:url(#SVGID_6_);stroke:#000000;stroke-width:3;stroke-linejoin:round;stroke-miterlimit:10;}
	.st11{fill:none;stroke:#FF0000;stroke-width:10;stroke-linejoin:round;stroke-miterlimit:10;}
	.st12{fill:none;stroke:#FF0000;stroke-width:10;stroke-miterlimit:10;}
	.st13{fill:none;stroke:#0000FF;stroke-width:10;stroke-linejoin:round;stroke-miterlimit:10;}
	.st14{fill-rule:evenodd;clip-rule:evenodd;fill:#FF931E;}
	.st15{fill:#0000FF;stroke:#0000FF;stroke-width:10;stroke-linejoin:round;stroke-miterlimit:10;}
	.st16{fill:#666666;}
	.st17{fill:url(#SVGID_7_);stroke:#000000;stroke-width:3;stroke-linejoin:round;stroke-miterlimit:10;}
	.st18{fill:url(#SVGID_8_);stroke:#000000;stroke-width:3;stroke-linejoin:round;stroke-miterlimit:10;}
	.st19{fill:url(#SVGID_9_);stroke:#000000;stroke-width:3;stroke-linejoin:round;stroke-miterlimit:10;}
	.st20{fill:url(#SVGID_10_);stroke:#000000;stroke-width:3;stroke-linejoin:round;stroke-miterlimit:10;}
	.st21{fill:url(#SVGID_11_);stroke:#000000;stroke-width:3;stroke-linejoin:round;stroke-miterlimit:10;}
	.st22{fill:url(#SVGID_12_);stroke:#000000;stroke-width:3;stroke-linejoin:round;stroke-miterlimit:10;}
</style>
<g>
	<g>
		<path class="st0" d="M1354.5,483.5h-111c-6.6,0-12-5.4-12-12v-111c0-6.6,5.4-12,12-12h111c6.6,0,12,5.4,12,12v111
			C1366.5,478.1,1361.1,483.5,1354.5,483.5z"/>
		<line class="st1" x1="1232" y1="416" x2="1366.5" y2="416"/>
		<line class="st1" x1="1232" y1="406" x2="1366.5" y2="406"/>
		<line class="st1" x1="1232" y1="396" x2="1366.5" y2="396"/>
		<line class="st1" x1="1233" y1="386" x2="1367.5" y2="386"/>
		<linearGradient id="SVGID_1_" gradientUnits="userSpaceOnUse" x1="1232" y1="376" x2="1366.5" y2="376">
			<stop  offset="0" style="stop-color:#FFFFFF"/>
			<stop  offset="1" style="stop-color:#000000"/>
		</linearGradient>
		<line class="st2" x1="1232" y1="376" x2="1366.5" y2="376"/>
		<text transform="matrix(1 0 0 1 1276.3921 361.8491)" class="st3 st4">SABIANA</text>
		<line class="st1" x1="1232" y1="366" x2="1366.5" y2="366"/>
		<line class="st1" x1="1232" y1="476" x2="1366.5" y2="476"/>
		<line class="st1" x1="1232" y1="466" x2="1366.5" y2="466"/>
		<line class="st1" x1="1232" y1="456" x2="1366.5" y2="456"/>
		<line class="st1" x1="1233" y1="446" x2="1367.5" y2="446"/>
		<linearGradient id="SVGID_2_" gradientUnits="userSpaceOnUse" x1="1232" y1="436" x2="1366.5" y2="436">
			<stop  offset="0" style="stop-color:#FFFFFF"/>
			<stop  offset="1" style="stop-color:#000000"/>
		</linearGradient>
		<line class="st5" x1="1232" y1="436" x2="1366.5" y2="436"/>
		<line class="st1" x1="1232" y1="426" x2="1366.5" y2="426"/>
	</g>
	<line class="st6" x1="1232" y1="376.5" x2="1209" y2="376.5"/>
	<line class="st6" x1="1391" y1="465.5" x2="1368" y2="465.5"/>
</g>
<g>
	<g>
		<path class="st0" d="M1104.5,333.5h-111c-6.6,0-12-5.4-12-12v-111c0-6.6,5.4-12,12-12h111c6.6,0,12,5.4,12,12v111
			C1116.5,328.1,1111.1,333.5,1104.5,333.5z"/>
		<line class="st1" x1="982" y1="266" x2="1116.5" y2="266"/>
		<line class="st1" x1="982" y1="256" x2="1116.5" y2="256"/>
		<line class="st1" x1="982" y1="246" x2="1116.5" y2="246"/>
		<line class="st1" x1="983" y1="236" x2="1117.5" y2="236"/>
		<linearGradient id="SVGID_3_" gradientUnits="userSpaceOnUse" x1="982" y1="226" x2="1116.5" y2="226">
			<stop  offset="0" style="stop-color:#FFFFFF"/>
			<stop  offset="1" style="stop-color:#000000"/>
		</linearGradient>
		<line class="st7" x1="982" y1="226" x2="1116.5" y2="226"/>
		<text transform="matrix(1 0 0 1 1026.3921 211.8491)" class="st3 st4">SABIANA</text>
		<line class="st1" x1="982" y1="216" x2="1116.5" y2="216"/>
		<line class="st1" x1="982" y1="326" x2="1116.5" y2="326"/>
		<line class="st1" x1="982" y1="316" x2="1116.5" y2="316"/>
		<line class="st1" x1="982" y1="306" x2="1116.5" y2="306"/>
		<line class="st1" x1="983" y1="296" x2="1117.5" y2="296"/>
		<linearGradient id="SVGID_4_" gradientUnits="userSpaceOnUse" x1="982" y1="286" x2="1116.5" y2="286">
			<stop  offset="0" style="stop-color:#FFFFFF"/>
			<stop  offset="1" style="stop-color:#000000"/>
		</linearGradient>
		<line class="st8" x1="982" y1="286" x2="1116.5" y2="286"/>
		<line class="st1" x1="982" y1="276" x2="1116.5" y2="276"/>
	</g>
	<line class="st6" x1="982" y1="226.5" x2="959" y2="226.5"/>
	<line class="st6" x1="1141" y1="315.5" x2="1118" y2="315.5"/>
</g>
<g>
	<g>
		<path class="st0" d="M854.5,183.5h-111c-6.6,0-12-5.4-12-12v-111c0-6.6,5.4-12,12-12h111c6.6,0,12,5.4,12,12v111
			C866.5,178.1,861.1,183.5,854.5,183.5z"/>
		<line class="st1" x1="732" y1="116" x2="866.5" y2="116"/>
		<line class="st1" x1="732" y1="106" x2="866.5" y2="106"/>
		<line class="st1" x1="732" y1="96" x2="866.5" y2="96"/>
		<line class="st1" x1="733" y1="86" x2="867.5" y2="86"/>
		<linearGradient id="SVGID_5_" gradientUnits="userSpaceOnUse" x1="732" y1="76" x2="866.5" y2="76">
			<stop  offset="0" style="stop-color:#FFFFFF"/>
			<stop  offset="1" style="stop-color:#000000"/>
		</linearGradient>
		<line class="st9" x1="732" y1="76" x2="866.5" y2="76"/>
		<text transform="matrix(1 0 0 1 776.3921 61.8491)" class="st3 st4">SABIANA</text>
		<line class="st1" x1="732" y1="66" x2="866.5" y2="66"/>
		<line class="st1" x1="732" y1="176" x2="866.5" y2="176"/>
		<line class="st1" x1="732" y1="166" x2="866.5" y2="166"/>
		<line class="st1" x1="732" y1="156" x2="866.5" y2="156"/>
		<line class="st1" x1="733" y1="146" x2="867.5" y2="146"/>
		<linearGradient id="SVGID_6_" gradientUnits="userSpaceOnUse" x1="732" y1="136" x2="866.5" y2="136">
			<stop  offset="0" style="stop-color:#FFFFFF"/>
			<stop  offset="1" style="stop-color:#000000"/>
		</linearGradient>
		<line class="st10" x1="732" y1="136" x2="866.5" y2="136"/>
		<line class="st1" x1="732" y1="126" x2="866.5" y2="126"/>
	</g>
	<line class="st6" x1="732" y1="76.5" x2="709" y2="76.5"/>
	<line class="st6" x1="891" y1="165.5" x2="868" y2="165.5"/>
</g>
<g>
	<line class="st11" x1="422.5" y1="219.5" x2="523" y2="220"/>
</g>
<polyline class="st12" points="478,220 478,283 523,283 "/>
<polyline class="st12" points="578,283 641,283 641,23 "/>
<g>
	<line class="st11" x1="576.5" y1="219.5" x2="641" y2="220"/>
</g>
<line class="st13" x1="1651" y1="499" x2="424" y2="499"/>
<g>
	<line class="st11" x1="157" y1="340" x2="237" y2="340"/>
	<line class="st14" x1="157" y1="340" x2="237" y2="340"/>
</g>
<line class="st15" x1="237" y1="454" x2="157" y2="455"/>
<g>
	<path class="st16" d="M249,515.5c-6.3,0-11.5-5.2-11.5-11.5V196c0-6.3,5.2-11.5,11.5-11.5h162c6.3,0,11.5,5.2,11.5,11.5v308
		c0,6.3-5.2,11.5-11.5,11.5H249z"/>
	<path d="M411,185c6.1,0,11,4.9,11,11v308c0,6.1-4.9,11-11,11H249c-6.1,0-11-4.9-11-11V196c0-6.1,4.9-11,11-11H411 M411,184H249
		c-6.6,0-12,5.4-12,12v308c0,6.6,5.4,12,12,12h162c6.6,0,12-5.4,12-12V196C423,189.4,417.6,184,411,184L411,184z"/>
</g>
<g>
	<line class="st11" x1="636" y1="23" x2="1459" y2="23"/>
</g>
<g>
	<line class="st11" x1="704" y1="382" x2="704" y2="23"/>
</g>
<g>
	<line class="st11" x1="1204" y1="382" x2="1204" y2="24"/>
</g>
<g>
	<line class="st11" x1="955" y1="232" x2="955" y2="24"/>
</g>
<g>
	<g>
		<path class="st0" d="M854.5,483.5h-111c-6.6,0-12-5.4-12-12v-111c0-6.6,5.4-12,12-12h111c6.6,0,12,5.4,12,12v111
			C866.5,478.1,861.1,483.5,854.5,483.5z"/>
		<line class="st1" x1="732" y1="416" x2="866.5" y2="416"/>
		<line class="st1" x1="732" y1="406" x2="866.5" y2="406"/>
		<line class="st1" x1="732" y1="396" x2="866.5" y2="396"/>
		<line class="st1" x1="733" y1="386" x2="867.5" y2="386"/>
		<linearGradient id="SVGID_7_" gradientUnits="userSpaceOnUse" x1="732" y1="376" x2="866.5" y2="376">
			<stop  offset="0" style="stop-color:#FFFFFF"/>
			<stop  offset="1" style="stop-color:#000000"/>
		</linearGradient>
		<line class="st17" x1="732" y1="376" x2="866.5" y2="376"/>
		<text transform="matrix(1 0 0 1 776.3921 361.8491)" class="st3 st4">SABIANA</text>
		<line class="st1" x1="732" y1="366" x2="866.5" y2="366"/>
		<line class="st1" x1="732" y1="476" x2="866.5" y2="476"/>
		<line class="st1" x1="732" y1="466" x2="866.5" y2="466"/>
		<line class="st1" x1="732" y1="456" x2="866.5" y2="456"/>
		<line class="st1" x1="733" y1="446" x2="867.5" y2="446"/>
		<linearGradient id="SVGID_8_" gradientUnits="userSpaceOnUse" x1="732" y1="436" x2="866.5" y2="436">
			<stop  offset="0" style="stop-color:#FFFFFF"/>
			<stop  offset="1" style="stop-color:#000000"/>
		</linearGradient>
		<line class="st18" x1="732" y1="436" x2="866.5" y2="436"/>
		<line class="st1" x1="732" y1="426" x2="866.5" y2="426"/>
	</g>
	<line class="st6" x1="732" y1="376.5" x2="709" y2="376.5"/>
	<line class="st6" x1="891" y1="465.5" x2="868" y2="465.5"/>
</g>
<g>
	<g>
		<path class="st0" d="M1354.5,183.5h-111c-6.6,0-12-5.4-12-12v-111c0-6.6,5.4-12,12-12h111c6.6,0,12,5.4,12,12v111
			C1366.5,178.1,1361.1,183.5,1354.5,183.5z"/>
		<line class="st1" x1="1232" y1="116" x2="1366.5" y2="116"/>
		<line class="st1" x1="1232" y1="106" x2="1366.5" y2="106"/>
		<line class="st1" x1="1232" y1="96" x2="1366.5" y2="96"/>
		<line class="st1" x1="1233" y1="86" x2="1367.5" y2="86"/>
		<linearGradient id="SVGID_9_" gradientUnits="userSpaceOnUse" x1="1232" y1="76" x2="1366.5" y2="76">
			<stop  offset="0" style="stop-color:#FFFFFF"/>
			<stop  offset="1" style="stop-color:#000000"/>
		</linearGradient>
		<line class="st19" x1="1232" y1="76" x2="1366.5" y2="76"/>
		<text transform="matrix(1 0 0 1 1276.3921 61.8491)" class="st3 st4">SABIANA</text>
		<line class="st1" x1="1232" y1="66" x2="1366.5" y2="66"/>
		<line class="st1" x1="1232" y1="176" x2="1366.5" y2="176"/>
		<line class="st1" x1="1232" y1="166" x2="1366.5" y2="166"/>
		<line class="st1" x1="1232" y1="156" x2="1366.5" y2="156"/>
		<line class="st1" x1="1233" y1="146" x2="1367.5" y2="146"/>
		<linearGradient id="SVGID_10_" gradientUnits="userSpaceOnUse" x1="1232" y1="136" x2="1366.5" y2="136">
			<stop  offset="0" style="stop-color:#FFFFFF"/>
			<stop  offset="1" style="stop-color:#000000"/>
		</linearGradient>
		<line class="st20" x1="1232" y1="136" x2="1366.5" y2="136"/>
		<line class="st1" x1="1232" y1="126" x2="1366.5" y2="126"/>
	</g>
	<line class="st6" x1="1232" y1="76.5" x2="1209" y2="76.5"/>
	<line class="st6" x1="1391" y1="165.5" x2="1368" y2="165.5"/>
</g>
<g>
	<g>
		<path class="st0" d="M1604.5,333.5h-111c-6.6,0-12-5.4-12-12v-111c0-6.6,5.4-12,12-12h111c6.6,0,12,5.4,12,12v111
			C1616.5,328.1,1611.1,333.5,1604.5,333.5z"/>
		<line class="st1" x1="1482" y1="266" x2="1616.5" y2="266"/>
		<line class="st1" x1="1482" y1="256" x2="1616.5" y2="256"/>
		<line class="st1" x1="1482" y1="246" x2="1616.5" y2="246"/>
		<line class="st1" x1="1483" y1="236" x2="1617.5" y2="236"/>
		<linearGradient id="SVGID_11_" gradientUnits="userSpaceOnUse" x1="1482" y1="226" x2="1616.5" y2="226">
			<stop  offset="0" style="stop-color:#FFFFFF"/>
			<stop  offset="1" style="stop-color:#000000"/>
		</linearGradient>
		<line class="st21" x1="1482" y1="226" x2="1616.5" y2="226"/>
		<text transform="matrix(1 0 0 1 1526.3921 211.8491)" class="st3 st4">SABIANA</text>
		<line class="st1" x1="1482" y1="216" x2="1616.5" y2="216"/>
		<line class="st1" x1="1482" y1="326" x2="1616.5" y2="326"/>
		<line class="st1" x1="1482" y1="316" x2="1616.5" y2="316"/>
		<line class="st1" x1="1482" y1="306" x2="1616.5" y2="306"/>
		<line class="st1" x1="1483" y1="296" x2="1617.5" y2="296"/>
		<linearGradient id="SVGID_12_" gradientUnits="userSpaceOnUse" x1="1482" y1="286" x2="1616.5" y2="286">
			<stop  offset="0" style="stop-color:#FFFFFF"/>
			<stop  offset="1" style="stop-color:#000000"/>
		</linearGradient>
		<line class="st22" x1="1482" y1="286" x2="1616.5" y2="286"/>
		<line class="st1" x1="1482" y1="276" x2="1616.5" y2="276"/>
	</g>
	<line class="st6" x1="1482" y1="226.5" x2="1459" y2="226.5"/>
	<line class="st6" x1="1641" y1="315.5" x2="1618" y2="315.5"/>
</g>
<g>
	<line class="st11" x1="1454" y1="232" x2="1454" y2="24"/>
</g>
<line class="st13" x1="896" y1="499" x2="896" y2="160"/>
<line class="st13" x1="1394" y1="499" x2="1394" y2="160"/>
<line class="st13" x1="1145" y1="499" x2="1144" y2="310"/>
<line class="st13" x1="1646" y1="499" x2="1645" y2="310"/>
</svg>
