<?xml version="1.0" encoding="utf-8"?>
<!-- Generator: Adobe Illustrator 23.0.3, SVG Export Plug-In . SVG Version: 6.00 Build 0)  -->
<svg version="1.1" id="Livello_1" xmlns="http://www.w3.org/2000/svg" xmlns:xlink="http://www.w3.org/1999/xlink" x="0px" y="0px"
	 viewBox="0 0 240 120" style="enable-background:new 0 0 240 120;" xml:space="preserve">
<style type="text/css">
	.st0{fill:none;stroke:#C6C6C6;stroke-width:2;stroke-linecap:round;stroke-miterlimit:10;}
</style>
<g>
	<path d="M120,18.5c3,0,5.4-2.4,5.4-5.4c0-3-2.4-5.4-5.4-5.4c-3,0-5.4,2.4-5.4,5.4C114.6,16.1,117,18.5,120,18.5z M120,9.8
		c1.8,0,3.3,1.5,3.3,3.3c0,1.8-1.5,3.3-3.3,3.3c-1.8,0-3.3-1.5-3.3-3.3C116.7,11.3,118.2,9.8,120,9.8z"/>
	<path d="M120,23.2c5.6,0,10.1-4.5,10.1-10.1C130.1,7.5,125.6,3,120,3c-5.6,0-10.1,4.5-10.1,10.1C109.9,18.7,114.4,23.2,120,23.2z
		 M120,5.1c4.4,0,8,3.6,8,8c0,4.4-3.6,8-8,8c-4.4,0-8-3.6-8-8C112,8.7,115.6,5.1,120,5.1z"/>
</g>
<path class="st0" d="M135,13.1c0,8.3-6.7,15-15,15c-8.3,0-15-6.7-15-15"/>
<path class="st0" d="M145,13.1c0,13.8-11.2,25-25,25h0c-13.8,0-25-11.2-25-25"/>
<path class="st0" d="M155,13.1c0,19.3-15.7,35-35,35c-19.3,0-35-15.7-35-35"/>
<path class="st0" d="M165,13.1c0,24.9-20.1,45-45,45h0c-24.9,0-45-20.1-45-45"/>
<path class="st0" d="M175,13.1c0,30.4-24.6,55-55,55s-55-24.6-55-55"/>
<path class="st0" d="M185,13.1c0,35.9-29.1,65-65,65S55,49,55,13.1"/>
<path class="st0" d="M195,13.1c0,41.5-33.5,75-75,75s-75-33.5-75-75"/>
<path class="st0" d="M205,13.1c0,47-38,85-85,85s-85-38-85-85"/>
<path class="st0" d="M215,13.1c0,52.5-42.5,95-95,95s-95-42.5-95-95"/>
<path class="st0" d="M225,13c0,58-47,105-105,105S15,71,15,13"/>
</svg>
