<?xml version="1.0" encoding="utf-8"?>
<!-- Generator: Adobe Illustrator 22.1.0, SVG Export Plug-In . SVG Version: 6.00 Build 0)  -->
<svg version="1.1" xmlns="http://www.w3.org/2000/svg" xmlns:xlink="http://www.w3.org/1999/xlink" x="0px" y="0px"
	 viewBox="0 0 60 60" style="enable-background:new 0 0 60 60;" xml:space="preserve">
<style type="text/css">
	.st0{fill:url(#SVGID_1_);}
	.st1{fill:#FFFFFF;}
	.st2{fill:#1D1D1B;}
</style>
<g id="Sfondo">
	<g>
		
			<linearGradient id="SVGID_1_" gradientUnits="userSpaceOnUse" x1="30" y1="0.5" x2="30" y2="59.5" gradientTransform="matrix(1 0 0 -1 0 60)">
			<stop  offset="0" style="stop-color:#E6E6EB"/>
			<stop  offset="0.1738" style="stop-color:#E2E2E6"/>
			<stop  offset="0.352" style="stop-color:#D5D4D8"/>
			<stop  offset="0.5323" style="stop-color:#C0BFC2"/>
			<stop  offset="0.7139" style="stop-color:#A4A2A4"/>
			<stop  offset="0.8949" style="stop-color:#828282"/>
			<stop  offset="1" style="stop-color:#6B6E6E"/>
		</linearGradient>
		<path class="st0" d="M10,59.5c-5.2,0-9.5-4.3-9.5-9.5V10c0-5.2,4.3-9.5,9.5-9.5h40c5.2,0,9.5,4.3,9.5,9.5v40
			c0,5.2-4.3,9.5-9.5,9.5H10z"/>
		<path class="st1" d="M50,1c5,0,9,4,9,9v40c0,5-4,9-9,9H10c-5,0-9-4-9-9V10c0-5,4-9,9-9H50 M50,0H10C4.5,0,0,4.5,0,10v40
			c0,5.5,4.5,10,10,10h40c5.5,0,10-4.5,10-10V10C60,4.5,55.5,0,50,0L50,0z"/>
	</g>
</g>
<g id="Livello_1">
	<g>
		<path class="st2" d="M33.4,24.4l11.3-11.3l-0.2-0.4c-0.2-0.4-0.2-0.9,0.1-1.1l4.1-3.2c0.1,0,0.6,0.1,1,0.6L50,9.5
			c0.4,0.4,0.6,0.9,0.6,1l-3.2,4.1c-0.2,0.3-0.7,0.2-1.1,0.1l-0.5-0.2L34.7,25.7l1,1l10.6-10.6c0.9,0.2,1.8,0,2.3-0.7l3.2-4.1
			c0.5-0.7,0.2-1.9-0.7-2.9L50.6,8c-1-1-2.2-1.3-2.9-0.7l-4.1,3.2c-0.7,0.5-0.9,1.4-0.7,2.3L32.3,23.4L33.4,24.4z"/>
		<path class="st2" d="M28.6,34.8l-0.5-0.5l0.2-0.2l-1-1l-1.2,1.2l1.5,1.5c0.2,0.2,0.3,0.5,0.4,0.7c0,0.1,0,0.2,0,0.3
			c-2.9,0.1-3.3,0.5-3.5,0.7c-0.2,0.2-0.7,0.7,0,2.9l-12,12c-0.2,0.2-0.4,0.2-0.5,0.2c-0.3,0-0.5-0.2-0.7-0.4l-4.4-4.4
			c-0.2-0.2-0.3-0.5-0.4-0.7c0-0.1,0-0.4,0.2-0.5l12-12c2.2,0.6,2.7,0.1,2.9,0c0.2-0.1,0.6-0.6,0.7-3.5c0.3-0.1,0.7,0,1,0.3l1.5,1.5
			l1.2-1.2l-1-1l-0.2,0.2l-0.5-0.5c-1-1-2.4-1-3.3-0.2l-0.2,0.2l0,0.3c0,1.1-0.1,2.3-0.3,2.8c-0.4,0-1.2-0.1-1.9-0.4L18.2,33
			L5.6,45.7c-0.4,0.4-0.6,1-0.6,1.7c0,0.6,0.3,1.2,0.8,1.6l4.4,4.4c0.4,0.4,1,0.7,1.6,0.8c0.1,0,0.1,0,0.2,0c0.6,0,1.1-0.2,1.5-0.6
			l12.6-12.6l-0.1-0.4c-0.2-0.7-0.4-1.5-0.4-1.9c0.4-0.1,1.6-0.2,2.8-0.3l0.3,0l0.2-0.2c0.4-0.4,0.6-1,0.6-1.7
			C29.4,35.8,29.1,35.2,28.6,34.8z"/>
		<path class="st2" d="M52.8,40.7c-1.4-1.4-3.3-2.2-5.3-2.2c-0.4,0-0.9,0-1.3,0.1L25.8,18.1c1.1-1.2,1.5-2.8,1.1-4.6
			c-0.3-1.5-1.1-3.1-2.1-4.1c-1.6-1.6-5.2-3.6-7.2-3.6c-0.2,0-0.4,0-0.5,0c-1.4,0.3-2.2,0.8-2.4,1.5c-0.1,0.3-0.2,0.9,0.4,1.6
			c0.7,0.7,1.5,1.6,2.4,2.4c0.4,0.4,0.8,0.8,1.1,1.1c0.8,0.8,0.6,1.6,0.4,1.8l-2.9,2.9c-0.1,0.1-0.3,0.2-0.6,0.2
			c-0.3,0-0.7-0.1-1.2-0.6c-0.4-0.4-0.7-0.7-1.1-1.1c-0.8-0.8-1.6-1.7-2.4-2.3c-0.4-0.3-0.8-0.5-1.2-0.5c-0.5,0-1.5,0.3-1.9,2.5
			c-0.4,2,1.9,6.1,3.5,7.7c1.1,1.1,3.1,2.2,5.3,2.2c1.2,0,2.3-0.4,3.2-1.1l20.5,20.5c-0.4,2.4,0.3,4.8,2.1,6.6
			c1.4,1.4,3.3,2.2,5.3,2.2s3.9-0.8,5.3-2.2C54.2,49.8,55,48,55,46C55,44,54.2,42.1,52.8,40.7z M51.8,50.2c-1.1,1.1-2.6,1.8-4.3,1.8
			c-1.6,0-3.1-0.6-4.3-1.8c-1.5-1.5-2.1-3.6-1.6-5.6l0.1-0.4L19.7,22.2L19,22.9c-0.7,0.7-1.5,1-2.6,1c-1.7,0-3.4-0.9-4.3-1.8
			c-1.6-1.6-3.4-5.2-3.1-6.4c0.2-0.9,0.4-1.3,0.5-1.3c0,0,0.1,0,0.2,0.1c0.7,0.7,1.5,1.5,2.3,2.3c0.4,0.4,0.8,0.8,1.1,1.2
			c0.8,0.8,1.7,1,2.2,1c0.6,0,1.2-0.2,1.6-0.6l2.9-2.9c0.9-0.9,1-2.5-0.4-3.8c-0.4-0.4-0.8-0.7-1.2-1.1c-0.8-0.8-1.6-1.6-2.3-2.3
			C16.1,8,16.1,7.9,16,7.9c0.1-0.1,0.4-0.4,1.3-0.5c0.1,0,0.1,0,0.2,0c1.5,0,4.7,1.6,6.2,3.1c0.8,0.8,1.5,2.1,1.7,3.3
			c0.2,1,0.2,2.4-0.9,3.5l-0.8,0.8l21.8,21.8l0.3,0.3l0.4-0.1c0.4-0.1,0.9-0.2,1.4-0.2c1.6,0,3.1,0.6,4.3,1.8
			c1.1,1.1,1.8,2.6,1.8,4.3C53.6,47.6,52.9,49.1,51.8,50.2z"/>
		<path class="st2" d="M50.7,42.8c-0.9-0.9-2-1.3-3.2-1.3c-1.2,0-2.4,0.5-3.2,1.3c-0.9,0.9-1.3,2-1.3,3.2c0,1.2,0.5,2.4,1.3,3.2
			c0.9,0.9,2,1.3,3.2,1.3c1.2,0,2.4-0.5,3.2-1.3c0.9-0.9,1.3-2,1.3-3.2C52.1,44.8,51.6,43.6,50.7,42.8z M49.9,48.3
			c-0.6,0.6-1.4,1-2.3,1c-0.9,0-1.7-0.3-2.3-1c-0.6-0.6-1-1.5-1-2.3c0-0.9,0.3-1.7,1-2.3c0.6-0.6,1.5-1,2.3-1c0.9,0,1.7,0.3,2.3,1
			c0.6,0.6,1,1.4,1,2.3C50.8,46.9,50.5,47.7,49.9,48.3z"/>
		<path class="st2" d="M9.7,47.8c0,0.9,0.7,1.6,1.6,1.6c0.9,0,1.6-0.7,1.6-1.6c0-0.9-0.7-1.6-1.6-1.6C10.4,46.2,9.7,46.9,9.7,47.8z
			 M11.8,47.8c0,0.3-0.3,0.6-0.6,0.6c-0.3,0-0.6-0.3-0.6-0.6c0-0.3,0.3-0.6,0.6-0.6C11.6,47.2,11.8,47.5,11.8,47.8z"/>
	</g>
</g>
</svg>
