<?xml version="1.0" encoding="utf-8"?>
<!-- Generator: Adobe Illustrator 23.0.3, SVG Export Plug-In . SVG Version: 6.00 Build 0)  -->
<svg version="1.1" id="Livello_1" xmlns="http://www.w3.org/2000/svg" xmlns:xlink="http://www.w3.org/1999/xlink" x="0px" y="0px"
	 viewBox="0 0 120 120" style="enable-background:new 0 0 120 120;" xml:space="preserve">
<style type="text/css">
	.st0{fill:#FFFFFF;}
</style>
<g>
	<path class="st0" d="M94.4,23.1c0.7-0.7,1.8-0.7,2.5,0s0.7,1.8,0,2.5L78.8,43.8l2,2L99,27.6c1.8-1.8,1.8-4.7,0-6.5s-4.7-1.8-6.5,0
		L74.3,39.3l2,2L94.4,23.1z"/>
	<path class="st0" d="M25.6,96.9c-0.7,0.7-1.8,0.7-2.5,0c-0.3-0.3-0.5-0.8-0.5-1.3s0.2-0.9,0.5-1.3l18.2-18.2l-2-2L21.1,92.4
		c-1.8,1.8-1.8,4.7,0,6.5c0.9,0.9,2.1,1.3,3.2,1.3c1.2,0,2.3-0.4,3.2-1.3l18.2-18.2l-2-2L25.6,96.9z"/>
	<path class="st0" d="M35.2,61.8H9.6c-1,0-1.8-0.8-1.8-1.8s0.8-1.8,1.8-1.8h25.7v-2.8H9.6C7,55.4,5,57.5,5,60s2,4.6,4.6,4.6h25.7
		v-2.8H35.2z"/>
	<path class="st0" d="M58.2,9.6c0-1,0.8-1.8,1.8-1.8s1.8,0.8,1.8,1.8v25.7h2.8V9.6C64.6,7,62.5,5,60,5s-4.6,2-4.6,4.6v25.7h2.8V9.6z
		"/>
	<path class="st0" d="M39.3,45.7l2-2L23.1,25.6c-0.3-0.3-0.5-0.8-0.5-1.3s0.2-0.9,0.5-1.3c0.7-0.7,1.8-0.7,2.5,0l18.2,18.2l2-2
		L27.6,21.1c-1.8-1.8-4.7-1.8-6.5,0c-0.9,0.9-1.3,2-1.3,3.2s0.5,2.4,1.3,3.2L39.3,45.7z"/>
	<path class="st0" d="M110.4,55.4H84.8v2.8h25.7c1,0,1.8,0.8,1.8,1.8s-0.8,1.8-1.8,1.8H84.8v2.8h25.7c2.5,0,4.6-2,4.6-4.6
		C115,57.5,113,55.4,110.4,55.4z"/>
	<path class="st0" d="M80.7,74.3l-2,2l18.2,18.2c0.7,0.7,0.7,1.8,0,2.5s-1.8,0.7-2.5,0L76.2,78.8l-2,2L92.4,99
		c0.9,0.9,2.1,1.3,3.2,1.3c1.2,0,2.3-0.4,3.2-1.3c1.8-1.8,1.8-4.7,0-6.5L80.7,74.3z"/>
	<path class="st0" d="M60,38.9c-11.6,0-21.1,9.4-21.1,21.1c0,11.6,9.4,21.1,21.1,21.1c11.6,0,21.1-9.4,21.1-21.1
		C81.1,48.4,71.6,38.9,60,38.9z M60,77.4c-9.6,0-17.4-7.8-17.4-17.4S50.4,42.6,60,42.6S77.4,50.4,77.4,60S69.6,77.4,60,77.4z"/>
	<path class="st0" d="M61.8,110.4c0,1-0.8,1.8-1.8,1.8s-1.8-0.8-1.8-1.8V84.8h-2.8v25.7c0,2.5,2,4.6,4.6,4.6c2.5,0,4.6-2,4.6-4.6
		V84.8h-2.8V110.4z"/>
</g>
</svg>
