<?xml version="1.0" encoding="utf-8"?>
<!-- Generator: Adobe Illustrator 22.1.0, SVG Export Plug-In . SVG Version: 6.00 Build 0)  -->
<svg version="1.1" id="Livello_1" xmlns="http://www.w3.org/2000/svg" xmlns:xlink="http://www.w3.org/1999/xlink" x="0px" y="0px"
	 viewBox="0 0 60 60" style="enable-background:new 0 0 60 60;" xml:space="preserve">
<style type="text/css">
	.st0{fill:#4E4D4D;}
</style>
<g>
	<polygon class="st0" points="7.2,50.8 4.9,44.5 7.3,43.6 6.7,41.8 2.5,43.4 6.1,53.2 10.2,51.7 9.6,50 	"/>
	<path class="st0" d="M22.5,30.1C22.5,30.1,22.6,30.1,22.5,30.1c0.6,0,0.9-0.5,0.9-1c-0.1-2.3,1.7-4.9,4.7-6.5l0.5-0.3V8.6h4v12.5
		l1-0.1c2.7-0.1,5,0.7,6.1,2.2c0.3,0.4,0.9,0.5,1.3,0.2c0.4-0.3,0.5-0.9,0.2-1.3c-1.3-1.8-3.8-2.9-6.7-3V6.8h-7.7v14.5
		c-3.3,2-5.4,5.1-5.2,8C21.6,29.7,22,30.1,22.5,30.1z"/>
	<path class="st0" d="M57.3,37.7l-5.4-14.8c-0.4-1.2-1.6-2-2.9-2c-0.4,0-0.7,0.1-1.1,0.2L16.3,32.5c-0.8,0.3-1.4,0.9-1.6,1.6
		c-0.2,0.7-0.1,1.4,0.4,2l0,0c0.1,0.1,6.3,10.4,8.7,13.6c0.1,0.2,0.3,0.4,0.4,0.5c0.9,1.2,1.3,1.8,2.3,1.8c0.3,0,0.7-0.1,1.2-0.2
		l27.8-10.1c0.8-0.3,1.4-0.8,1.7-1.6C57.6,39.3,57.6,38.5,57.3,37.7z M55.5,39.3c-0.1,0.3-0.4,0.5-0.7,0.6L27,50.1
		c-0.3,0.1-0.4,0.1-0.5,0.1c-0.2-0.2-0.6-0.7-0.8-1c-0.1-0.2-0.3-0.4-0.4-0.6c-1.7-2.2-5.7-8.6-8.6-13.4l0-0.1l0,0l0,0l0,0l0,0l0,0
		c-0.1-0.1-0.2-0.3-0.1-0.4c0.1-0.2,0.2-0.3,0.5-0.4l31.6-11.5c0.1-0.1,0.3-0.1,0.4-0.1c0.5,0,1,0.3,1.2,0.8l5.4,14.8
		C55.7,38.6,55.7,39,55.5,39.3z"/>
	<path class="st0" d="M14.2,51.3c-0.2,0.1-0.4,0.1-0.5,0.1c-0.7,0-1.2-0.4-1.5-1l-3.3-9C8.8,41,8.8,40.6,9,40.2
		c0.2-0.4,0.5-0.7,0.9-0.8l4.5-1.7L13.8,36l-4.5,1.6c-0.9,0.3-1.5,0.9-1.9,1.8C7,40.2,6.9,41.2,7.2,42l3.3,9
		c0.5,1.3,1.8,2.2,3.2,2.2c0.4,0,0.8-0.1,1.2-0.2l7.5-2.7l-0.6-1.7L14.2,51.3z"/>
</g>
</svg>
