<?xml version="1.0" encoding="utf-8"?>
<!-- Generator: Adobe Illustrator 23.0.0, SVG Export Plug-In . SVG Version: 6.00 Build 0)  -->
<svg version="1.1" id="Livello_1" xmlns="http://www.w3.org/2000/svg" xmlns:xlink="http://www.w3.org/1999/xlink" x="0px" y="0px"
	 viewBox="0 0 60 60" style="enable-background:new 0 0 60 60;" xml:space="preserve">
<style type="text/css">
	.st0{fill:url(#SVGID_1_);}
	.st1{fill:#FFFFFF;}
	.st2{fill:#1C1A1A;}
	.st3{fill:#1D1D1B;}
</style>
<g id="Sfondo">
	<g>
		
			<linearGradient id="SVGID_1_" gradientUnits="userSpaceOnUse" x1="30" y1="0.39" x2="30" y2="59.39" gradientTransform="matrix(1 0 0 -1 0 59.89)">
			<stop  offset="0" style="stop-color:#E6E6EB"/>
			<stop  offset="0.1738" style="stop-color:#E2E2E6"/>
			<stop  offset="0.352" style="stop-color:#D5D4D8"/>
			<stop  offset="0.5323" style="stop-color:#C0BFC2"/>
			<stop  offset="0.7139" style="stop-color:#A4A2A4"/>
			<stop  offset="0.8949" style="stop-color:#828282"/>
			<stop  offset="1" style="stop-color:#6B6E6E"/>
		</linearGradient>
		<path class="st0" d="M10,59.5c-5.2,0-9.5-4.3-9.5-9.5V10c0-5.2,4.3-9.5,9.5-9.5h40c5.2,0,9.5,4.3,9.5,9.5v40
			c0,5.2-4.3,9.5-9.5,9.5H10z"/>
		<path class="st1" d="M50,1c5,0,9,4,9,9v40c0,5-4,9-9,9H10c-5,0-9-4-9-9V10c0-5,4-9,9-9H50 M50,0H10C4.5,0,0,4.5,0,10v40
			c0,5.5,4.5,10,10,10h40c5.5,0,10-4.5,10-10V10C60,4.5,55.5,0,50,0L50,0z"/>
	</g>
</g>
<g>
	<path class="st2" d="M26.7,40.6V24.9h-5.5v15.8c-1.8,1-3,2.9-3,5c0,3.1,2.6,5.7,5.7,5.7c3.1,0,5.7-2.6,5.7-5.7
		C29.7,43.5,28.6,41.6,26.7,40.6z M24,49.9c-2.4,0-4.3-1.9-4.3-4.3c0-1.7,1-3.2,2.5-3.9l0.4-0.2V26.3h2.7v15.2l0.4,0.2
		c1.5,0.7,2.5,2.2,2.5,3.9C28.3,48,26.4,49.9,24,49.9z"/>
	<path class="st3" d="M29.3,38.6V11.2c0-2.9-2.4-5.3-5.3-5.3s-5.3,2.4-5.3,5.3v27.4c-2.1,1.6-3.3,4.2-3.3,6.8c0,4.8,3.9,8.6,8.6,8.6
		s8.6-3.9,8.6-8.6C32.6,42.8,31.4,40.3,29.3,38.6z M24,52.5c-3.9,0-7-3.2-7-7c0-2.3,1.1-4.4,3-5.8l0.3-0.2V11.2c0-2,1.7-3.7,3.7-3.7
		s3.7,1.7,3.7,3.7v28.3l0.3,0.2c1.9,1.3,3,3.5,3,5.8C31,49.3,27.9,52.5,24,52.5z"/>
</g>
<g>
	<path class="st3" d="M39.1,23.4c-0.2,0-0.4,0-0.6,0c-2.1,0-3.8,1.5-4.1,3.6c-0.3,2.3,1.3,4.4,3.6,4.7c0.2,0,0.4,0,0.6,0l0,0
		c2.1,0,3.8-1.5,4.1-3.6C43,25.9,41.4,23.7,39.1,23.4z M42,28.1c-0.2,1.7-1.7,3-3.4,3c-0.2,0-0.3,0-0.5,0c-1.9-0.3-3.2-2-2.9-3.9
		c0.2-1.7,1.7-3,3.4-3c0.2,0,0.3,0,0.5,0C40.9,24.4,42.2,26.2,42,28.1z"/>
	<path class="st3" d="M45,28.1L45,28.1c-0.5-0.3-0.7-0.7-0.8-1.1c0-0.4,0.2-0.9,0.5-1.2l0.1-0.1c0.7-0.7,0.7-1.1,0.6-1.4
		c-0.1-0.2-0.4-0.5-1.1-0.5c-0.1,0-0.3,0-0.4,0l-0.1,0c-0.5,0.1-1-0.1-1.3-0.4c-0.3-0.3-0.4-0.7-0.3-1.2l0-0.1
		c0.1-0.6,0-1.1-0.2-1.3c-0.1-0.2-0.3-0.2-0.5-0.2c-0.3,0-0.7,0.2-1.1,0.7l-0.1,0.1c-0.3,0.3-0.7,0.5-1.1,0.5
		c-0.5,0-0.9-0.3-1.2-0.7l0-0.1c-0.4-0.6-0.8-0.9-1.1-0.9c-0.2,0-0.8,0.1-0.9,1.4l0,0.1c0,0.8-0.6,1.4-1.4,1.4c-0.2,0-0.4,0-0.5-0.1
		l-0.1,0c-0.3-0.1-0.6-0.1-0.8-0.1c-0.5,0-0.7,0.3-0.8,0.4c-0.2,0.4-0.1,0.9,0.4,1.4l0,0.1c0.3,0.4,0.4,0.9,0.3,1.3
		c-0.1,0.4-0.4,0.8-0.9,0.9l-0.1,0c-0.9,0.4-1.1,0.8-1.1,1.2c0,0.3,0.3,0.7,1.3,1l0.1,0c0.5,0.1,0.9,0.4,1.1,0.8
		c0.2,0.4,0.2,0.9-0.1,1.3l0,0.1c-0.3,0.6-0.4,1.1-0.2,1.4c0.1,0.1,0.3,0.4,0.7,0.4c0.3,0,0.6-0.1,1-0.3l0.1,0
		c0.3-0.1,0.5-0.2,0.8-0.2c0.7,0,1.2,0.5,1.3,1.2l0,0.1c0.2,1,0.7,1.3,1,1.3c0.4,0,0.8-0.4,1.1-1.1l0-0.1c0.3-0.6,0.7-0.9,1.3-0.9
		c0.3,0,0.7,0.1,1,0.4l0.1,0c0.4,0.3,0.8,0.5,1.1,0.5l0,0c0.2,0,0.5-0.1,0.6-0.3c0.2-0.3,0.2-0.8,0-1.4l0-0.1
		c-0.1-0.5-0.1-1,0.2-1.3c0.2-0.4,0.7-0.6,1.2-0.6l0.1,0c1,0,1.3-0.4,1.4-0.7C45.9,29.1,45.8,28.6,45,28.1z M44.4,29.4L44.4,29.4
		c-0.8,0-1.4,0.4-1.8,0.9c-0.4,0.5-0.5,1.2-0.3,1.9l0,0.1c0.2,0.5,0.1,0.7,0.1,0.8c0,0,0,0,0,0c-0.1,0-0.3,0-0.7-0.3l-0.1,0
		c-0.4-0.3-0.9-0.5-1.4-0.5c-0.8,0-1.6,0.5-1.9,1.4l0,0.1c-0.2,0.5-0.4,0.6-0.4,0.6c0,0-0.2-0.2-0.3-0.7l0-0.1c-0.2-1.1-1-1.7-2-1.7
		c-0.4,0-0.7,0.1-1.1,0.3l-0.1,0c-0.4,0.2-0.6,0.2-0.7,0.2c-0.1,0-0.1,0-0.1,0c0,0,0-0.3,0.2-0.7l0-0.1c0.3-0.7,0.4-1.3,0.1-1.9
		c-0.3-0.6-0.8-1-1.5-1.2l-0.1,0c-0.5-0.1-0.7-0.3-0.7-0.3c0,0,0.1-0.2,0.6-0.4l0.1,0c0.7-0.3,1.1-0.8,1.3-1.4
		c0.2-0.6,0-1.3-0.4-1.9l0-0.1c-0.3-0.4-0.3-0.7-0.3-0.7c0,0,0,0,0.2,0c0.2,0,0.4,0,0.6,0.1l0.1,0c0.3,0.1,0.5,0.1,0.7,0.1
		c1.2,0,2-0.9,2.1-2.1l0-0.1c0-0.5,0.2-0.7,0.2-0.7c0,0,0.3,0.1,0.5,0.6l0,0.1c0.4,0.7,1.1,1.1,1.8,1.1h0c0.6,0,1.2-0.3,1.6-0.7
		l0.1-0.1c0.3-0.4,0.5-0.4,0.6-0.4c0,0,0.1,0.2,0.1,0.8l0,0.1c-0.1,0.7,0.1,1.3,0.5,1.8c0.4,0.4,1,0.7,1.6,0.7c0.1,0,0.2,0,0.3,0
		l0.1,0c0.1,0,0.2,0,0.3,0c0.3,0,0.4,0.1,0.4,0.1c0,0,0,0.3-0.5,0.6l-0.1,0.1c-0.5,0.5-0.8,1.1-0.8,1.8c0.1,0.7,0.4,1.2,1,1.6l0.1,0
		c0.5,0.3,0.5,0.5,0.5,0.5C45.1,29.3,44.9,29.4,44.4,29.4z"/>
	<path class="st3" d="M48.6,10.8c-1.4,0-2.6,0.6-3.6,1.6c-0.9,1-1.4,2.3-1.4,3.7c0.1,2.8,2.3,5,5.1,5c0,0,0,0,0,0c0.1,0,0.1,0,0.2,0
		c1.4,0,2.6-0.6,3.6-1.6c0.9-1,1.4-2.3,1.4-3.7C53.8,12.9,51.4,10.7,48.6,10.8z M52,18.9c-0.8,0.9-1.9,1.4-3.1,1.4c0,0-0.1,0-0.1,0
		h0c-2.4,0-4.3-1.9-4.4-4.3c0-1.2,0.4-2.3,1.2-3.2c0.8-0.9,1.9-1.4,3.1-1.4c0,0,0.1,0,0.1,0c2.4,0,4.3,1.9,4.4,4.3
		C53.2,16.9,52.8,18,52,18.9z"/>
	<path class="st3" d="M56.7,15.2L56.7,15.2c-0.7-0.3-1.1-0.7-1.3-1.3c-0.1-0.5,0-1.1,0.4-1.7l0.1-0.1c0.5-0.7,0.7-1.3,0.5-1.7
		c-0.1-0.2-0.3-0.5-1-0.5c-0.3,0-0.6,0.1-0.9,0.2l-0.1,0c-0.2,0.1-0.5,0.1-0.7,0.1c-1,0-1.7-0.7-1.8-1.8l0-0.1
		c-0.1-1.5-0.7-1.7-1-1.7c-0.4,0-0.9,0.4-1.4,1l-0.1,0.1c-0.4,0.6-1,0.9-1.6,0.9c-0.5,0-1-0.2-1.4-0.7l-0.1-0.1
		c-0.5-0.5-1-0.8-1.4-0.8c-0.2,0-0.4,0.1-0.6,0.3c-0.3,0.3-0.4,0.8-0.3,1.6l0,0.1c0.1,0.6-0.1,1.2-0.4,1.6c-0.4,0.4-1,0.7-1.7,0.6
		l-0.1,0c-0.2,0-0.4,0-0.5,0c-0.8,0-1.2,0.3-1.3,0.6c-0.1,0.3-0.1,0.9,0.8,1.7l0.1,0.1c0.5,0.5,0.7,1,0.7,1.6
		c-0.1,0.6-0.4,1.1-0.9,1.4l-0.1,0.1c-1,0.7-1.1,1.2-1,1.5c0.1,0.3,0.5,0.8,1.7,0.8l0.1,0c0.7,0,1.2,0.3,1.5,0.8
		c0.3,0.5,0.4,1.1,0.2,1.7l0,0.1c-0.2,0.8-0.2,1.3,0,1.7c0.2,0.2,0.4,0.3,0.7,0.3c0.4,0,0.8-0.2,1.3-0.6l0.1-0.1
		c0.4-0.3,0.8-0.4,1.2-0.4c0.7,0,1.4,0.5,1.7,1.2l0,0.1c0.4,1.1,0.9,1.3,1.3,1.3c0.4,0,0.9-0.3,1.2-1.5l0-0.1
		c0.2-0.9,0.9-1.5,1.7-1.5c0.3,0,0.7,0.1,1,0.3l0.1,0c0.5,0.2,0.9,0.4,1.2,0.4l0,0c0.3,0,0.6-0.1,0.8-0.4c0.2-0.4,0.2-1-0.2-1.7
		l0-0.1c-0.3-0.6-0.3-1.2-0.1-1.7c0.2-0.5,0.7-0.9,1.4-1l0.1,0c1.2-0.3,1.5-0.7,1.5-1.1C58,16.2,57.9,15.7,56.7,15.2z M56.4,17
		L56.4,17c-1,0.2-1.6,0.7-2,1.4c-0.3,0.7-0.3,1.5,0.1,2.3l0,0.1c0.3,0.6,0.3,0.9,0.2,1c0,0-0.1,0-0.2,0c-0.1,0-0.4,0-0.9-0.3l-0.1,0
		c-0.4-0.2-0.9-0.3-1.3-0.3c-1.2,0-2.1,0.8-2.4,2.1l0,0.1c-0.2,0.7-0.4,0.9-0.5,0.9c-0.1,0-0.3-0.2-0.6-0.8l0-0.1
		c-0.4-1.1-1.3-1.7-2.3-1.7c-0.6,0-1.1,0.2-1.7,0.6l-0.1,0.1c-0.5,0.4-0.8,0.4-0.9,0.4c-0.1,0-0.1,0-0.1,0c0,0-0.2-0.3,0.1-1l0-0.1
		c0.3-0.8,0.2-1.7-0.3-2.3c-0.4-0.7-1.2-1-2.1-1.1l-0.1,0c-0.8,0-1-0.2-1-0.3c0-0.1,0.1-0.4,0.7-0.8l0.1-0.1c0.7-0.5,1.2-1.2,1.3-2
		c0.1-0.8-0.2-1.6-0.9-2.2l-0.1-0.1c-0.6-0.5-0.6-0.8-0.6-0.9c0,0,0.2-0.2,0.6-0.2c0.1,0,0.3,0,0.5,0l0.1,0c0.1,0,0.3,0,0.4,0
		c0,0,0,0,0,0c0.8,0,1.5-0.3,1.9-0.8c0.5-0.5,0.7-1.3,0.6-2.1l0-0.1c-0.1-0.8,0.1-1,0.1-1c0,0,0,0,0.1,0c0.1,0,0.4,0.2,0.8,0.6
		L46,8.5c0.5,0.6,1.2,0.9,2,0.9c0.9,0,1.6-0.5,2.2-1.3l0.1-0.1c0.4-0.6,0.6-0.7,0.8-0.7c0.1,0,0.3,0.3,0.3,1l0,0.1
		c0.1,1.5,1.1,2.5,2.5,2.5c0,0,0,0,0,0c0.3,0,0.6,0,0.9-0.1l0.1,0c0.3-0.1,0.5-0.1,0.7-0.1c0.2,0,0.3,0,0.3,0.1c0,0.1,0,0.4-0.4,1
		l-0.1,0.1c-0.5,0.7-0.7,1.5-0.5,2.3c0.2,0.8,0.8,1.4,1.6,1.7l0.1,0c0.7,0.3,0.8,0.6,0.8,0.6C57.3,16.6,57.1,16.8,56.4,17z"/>
	<path class="st3" d="M48.7,13.4c-0.7,0-1.3,0.3-1.7,0.8c-0.5,0.5-0.7,1.1-0.7,1.8c0,1.3,1.1,2.4,2.5,2.4c0,0,0.1,0,0.1,0
		c0.7,0,1.3-0.3,1.7-0.8c0.5-0.5,0.7-1.1,0.7-1.8C51.2,14.4,50.1,13.4,48.7,13.4z M50.1,17.2c-0.3,0.4-0.8,0.6-1.3,0.6
		c-1,0-1.9-0.8-1.9-1.8c0-0.5,0.2-1,0.5-1.3c0.3-0.4,0.8-0.6,1.3-0.6c0,0,0,0,0.1,0c1,0,1.8,0.8,1.9,1.8
		C50.7,16.3,50.5,16.8,50.1,17.2z"/>
	<path class="st3" d="M38.8,25.5c-0.1,0-0.2,0-0.3,0c-1,0-1.9,0.8-2,1.8c-0.2,1.1,0.6,2.2,1.7,2.3c0.1,0,0.2,0,0.3,0
		c1,0,1.9-0.8,2-1.8C40.7,26.7,39.9,25.7,38.8,25.5z M40,27.8c-0.1,0.7-0.7,1.2-1.4,1.2c-0.1,0-0.1,0-0.2,0
		c-0.8-0.1-1.3-0.8-1.2-1.6c0.1-0.7,0.7-1.2,1.4-1.2c0.1,0,0.1,0,0.2,0C39.5,26.2,40.1,27,40,27.8z"/>
</g>
</svg>
