<?xml version="1.0" encoding="utf-8"?>
<!-- Generator: Adobe Illustrator 23.0.3, SVG Export Plug-In . SVG Version: 6.00 Build 0)  -->
<svg version="1.1" id="Livello_1" xmlns="http://www.w3.org/2000/svg" xmlns:xlink="http://www.w3.org/1999/xlink" x="0px" y="0px"
	 viewBox="0 0 120 120" style="enable-background:new 0 0 120 120;" xml:space="preserve">
<style type="text/css">
	.st0{fill:#E30613;}
</style>
<path d="M82.9,60l28.9-28.9c4.2-4.2,4.2-11.1,0-15.4l-7.5-7.5C102.3,6.1,99.6,5,96.6,5c-2.9,0-5.6,1.1-7.7,3.2L60,37.1L31.1,8.2
	C29,6.1,26.3,5,23.4,5c-2.9,0-5.6,1.1-7.7,3.2l-7.5,7.5C6.1,17.7,5,20.5,5,23.4c0,2.9,1.1,5.6,3.2,7.7L37.1,60L8.2,88.9
	c-4.2,4.2-4.2,11.1,0,15.4l7.5,7.5c2.1,2.1,4.8,3.2,7.7,3.2c2.9,0,5.6-1.1,7.7-3.2L60,82.9l28.9,28.9c2.1,2.1,4.8,3.2,7.7,3.2
	c2.9,0,5.6-1.1,7.7-3.2l7.5-7.5c4.2-4.2,4.2-11.1,0-15.4L82.9,60z M108.9,101.4l-7.5,7.5c-1.3,1.3-3,2-4.8,2c-1.8,0-3.5-0.7-4.8-2
	L60,77l-31.9,31.9c-1.3,1.3-3,2-4.8,2c-1.8,0-3.5-0.7-4.8-2l-7.5-7.5c-2.6-2.6-2.6-6.9,0-9.5L43,60L11.1,28.1c-1.3-1.3-2-3-2-4.8
	c0-1.8,0.7-3.5,2-4.8l7.5-7.5c1.3-1.3,3-2,4.8-2c1.8,0,3.5,0.7,4.8,2L60,43l31.9-31.9c1.3-1.3,3-2,4.8-2c1.8,0,3.5,0.7,4.8,2
	l7.5,7.5c2.6,2.6,2.6,6.9,0,9.5L77,60l31.9,31.9C111.5,94.5,111.5,98.8,108.9,101.4z"/>
<path class="st0" d="M108.9,101.4l-7.5,7.5c-1.3,1.3-3,2-4.8,2c-1.8,0-3.5-0.7-4.8-2L60,77l-31.9,31.9c-1.3,1.3-3,2-4.8,2
	c-1.8,0-3.5-0.7-4.8-2l-7.5-7.5c-2.6-2.6-2.6-6.9,0-9.5L43,60L11.1,28.1c-1.3-1.3-2-3-2-4.8c0-1.8,0.7-3.5,2-4.8l7.5-7.5
	c1.3-1.3,3-2,4.8-2c1.8,0,3.5,0.7,4.8,2L60,43l31.9-31.9c1.3-1.3,3-2,4.8-2c1.8,0,3.5,0.7,4.8,2l7.5,7.5c2.6,2.6,2.6,6.9,0,9.5
	L77,60l31.9,31.9C111.5,94.5,111.5,98.8,108.9,101.4z"/>
</svg>
