<?xml version="1.0" encoding="utf-8"?>
<!-- Generator: Adobe Illustrator 22.1.0, SVG Export Plug-In . SVG Version: 6.00 Build 0)  -->
<svg version="1.1" id="Livello_1" xmlns="http://www.w3.org/2000/svg" xmlns:xlink="http://www.w3.org/1999/xlink" x="0px" y="0px"
	 viewBox="0 0 794.6 112.1" style="enable-background:new 0 0 794.6 112.1;" xml:space="preserve">
<g>
	<g id="Ve97Ao_2_">
		<polygon points="38.6,37.4 51.9,37.4 51.9,20.9 22.6,20.9 22.6,50.2 38.6,50.2 		"/>
		<rect x="43.2" y="42" width="29.3" height="29.3"/>
		<polygon points="64.2,20.9 64.2,37.4 77.1,37.4 77.1,50.2 93.5,50.2 93.5,20.9 		"/>
		<polygon points="38.6,75.9 38.6,62.5 22.6,62.5 22.6,91.7 51.9,91.7 51.9,75.9 		"/>
		<polygon points="77.1,62.5 77.1,75.9 64.2,75.9 64.2,91.7 93.5,91.7 93.5,62.5 		"/>
	</g>
	<g>
		<path d="M117.8,20.8h10.6l13.8,38.1l5.2,14.5h0.4l5-14.5l13.7-38.1H177v71.1h-8.6V52.8c0-3.2,0.1-6.7,0.4-10.5
			c0.3-3.8,0.5-7.3,0.8-10.5h-0.4l-5.7,15.8l-13.7,37.2h-5.1L131,47.6l-5.6-15.8h-0.4c0.2,3.2,0.5,6.7,0.8,10.5
			c0.3,3.8,0.4,7.3,0.4,10.5v39.1h-8.3V20.8z"/>
		<path d="M196.5,20.8h41v7.6h-32v22.3h27v7.7h-27v25.8h33.1v7.7h-42.1V20.8z"/>
		<path d="M249.5,56.3c0-5.7,0.8-10.8,2.4-15.4c1.6-4.6,3.8-8.4,6.6-11.6c2.8-3.2,6.2-5.6,10-7.3c3.9-1.7,8.1-2.5,12.6-2.5
			c4.3,0,8.1,0.9,11.4,2.7c3.3,1.8,5.9,3.8,8,6.1l-5.1,5.7c-1.9-2-4-3.6-6.2-4.8s-4.9-1.8-8-1.8c-3.4,0-6.5,0.7-9.2,2
			c-2.7,1.3-5.1,3.3-7,5.7c-2,2.5-3.5,5.5-4.6,9.1c-1.1,3.5-1.6,7.5-1.6,11.9c0,4.5,0.5,8.5,1.6,12.1c1,3.6,2.5,6.6,4.4,9.2
			c1.9,2.5,4.2,4.5,6.9,5.9c2.7,1.4,5.8,2.1,9.2,2.1c3.5,0,6.5-0.7,9-2.1c2.6-1.4,5-3.3,7.3-5.9l5.1,5.5c-2.8,3.3-6,5.8-9.5,7.6
			c-3.5,1.8-7.6,2.7-12.1,2.7c-4.5,0-8.6-0.8-12.4-2.5c-3.8-1.7-7.1-4.1-9.9-7.2c-2.8-3.1-4.9-7-6.5-11.6
			C250.3,67.3,249.5,62.1,249.5,56.3z"/>
		<path d="M315.5,20.8h9v29.8h33.1V20.8h9.1v71.1h-9.1V58.4h-33.1v33.5h-9V20.8z"/>
		<path d="M418.7,70.2h-25.9L386,91.9h-9.2l24.1-71.1H411l24.1,71.1h-9.6L418.7,70.2z M416.4,62.9l-3.4-10.8
			c-1.3-4-2.5-7.9-3.7-11.9c-1.2-3.9-2.3-8-3.5-12.1h-0.4c-1.1,4.1-2.2,8.1-3.4,12.1c-1.2,3.9-2.4,7.9-3.7,11.9l-3.4,10.8H416.4z"/>
		<path d="M455.6,28.4h-21.5v-7.6h52v7.6h-21.5v63.5h-9.1V28.4z"/>
		<path d="M537.9,91.9l-17.1-30h-12.9v30h-9V20.8h22.2c3.6,0,7,0.3,10,1c3.1,0.7,5.7,1.8,7.9,3.4c2.2,1.6,3.9,3.6,5.1,6.2
			c1.2,2.5,1.8,5.6,1.8,9.3c0,5.6-1.4,10-4.3,13.3c-2.9,3.3-6.8,5.6-11.6,6.8l18,31H537.9z M507.9,54.5h11.9c5.6,0,9.8-1.1,12.8-3.4
			c3-2.3,4.4-5.7,4.4-10.4c0-4.7-1.5-8-4.4-9.9c-3-1.9-7.2-2.8-12.8-2.8h-11.9V54.5z"/>
		<path d="M588.1,93.2c-4.5,0-8.6-0.9-12.3-2.6c-3.7-1.7-6.9-4.2-9.6-7.4c-2.7-3.2-4.8-7.1-6.2-11.7c-1.5-4.6-2.2-9.7-2.2-15.4
			c0-5.7,0.7-10.8,2.2-15.3c1.5-4.5,3.6-8.3,6.2-11.5c2.7-3.1,5.9-5.5,9.6-7.2c3.7-1.7,7.8-2.5,12.3-2.5c4.5,0,8.6,0.8,12.3,2.5
			c3.7,1.7,6.9,4.1,9.6,7.3c2.7,3.1,4.8,7,6.3,11.5c1.5,4.5,2.2,9.6,2.2,15.2c0,5.7-0.7,10.9-2.2,15.4c-1.5,4.6-3.6,8.5-6.3,11.7
			c-2.7,3.2-5.9,5.7-9.6,7.4C596.7,92.3,592.6,93.2,588.1,93.2z M588.1,85.3c3.2,0,6.1-0.7,8.6-2.1c2.6-1.4,4.8-3.3,6.6-5.9
			c1.8-2.6,3.3-5.6,4.3-9.2c1-3.6,1.5-7.6,1.5-12.1c0-4.4-0.5-8.4-1.5-11.9c-1-3.5-2.4-6.5-4.3-9c-1.8-2.5-4.1-4.4-6.6-5.7
			c-2.6-1.3-5.4-2-8.6-2c-3.2,0-6.1,0.7-8.6,2c-2.6,1.3-4.8,3.2-6.6,5.7c-1.8,2.5-3.3,5.5-4.3,9c-1,3.5-1.5,7.5-1.5,11.9
			c0,4.5,0.5,8.5,1.5,12.1c1,3.6,2.4,6.6,4.3,9.2c1.8,2.6,4,4.5,6.6,5.9C582.1,84.6,584.9,85.3,588.1,85.3z"/>
		<path d="M633.9,20.8h9.3l25.7,44.7l7.7,14.7h0.4c-0.2-3.6-0.5-7.4-0.7-11.2c-0.3-3.9-0.4-7.7-0.4-11.4V20.8h8.6v71.1h-9.3
			l-25.8-44.8l-7.7-14.6h-0.4c0.3,3.6,0.6,7.3,0.8,11c0.3,3.7,0.4,7.5,0.4,11.2v37.2h-8.6V20.8z"/>
		<path d="M704,20.8h9v71.1h-9V20.8z"/>
		<path d="M728.4,56.3c0-5.7,0.8-10.8,2.4-15.4c1.6-4.6,3.8-8.4,6.6-11.6c2.8-3.2,6.2-5.6,10-7.3c3.9-1.7,8.1-2.5,12.6-2.5
			c4.3,0,8.1,0.9,11.4,2.7c3.3,1.8,5.9,3.8,8,6.1l-5.1,5.7c-1.9-2-4-3.6-6.2-4.8c-2.3-1.2-4.9-1.8-8-1.8c-3.4,0-6.5,0.7-9.2,2
			c-2.7,1.3-5.1,3.3-7,5.7c-2,2.5-3.5,5.5-4.6,9.1c-1.1,3.5-1.6,7.5-1.6,11.9c0,4.5,0.5,8.5,1.6,12.1c1,3.6,2.5,6.6,4.4,9.2
			c1.9,2.5,4.2,4.5,6.9,5.9c2.7,1.4,5.8,2.1,9.2,2.1c3.5,0,6.5-0.7,9.1-2.1c2.6-1.4,5-3.3,7.3-5.9l5.1,5.5c-2.8,3.3-6,5.8-9.5,7.6
			c-3.5,1.8-7.6,2.7-12.1,2.7c-4.5,0-8.6-0.8-12.4-2.5c-3.8-1.7-7.1-4.1-9.9-7.2c-2.8-3.1-5-7-6.5-11.6
			C729.1,67.3,728.4,62.1,728.4,56.3z"/>
	</g>
</g>
</svg>
